<?xml version="1.0" encoding="UTF-8"?>
<!DOCTYPE svg PUBLIC "-//W3C//DTD SVG 1.1//EN" "http://www.w3.org/Graphics/SVG/1.1/DTD/svg11.dtd">
<svg xmlns="http://www.w3.org/2000/svg" version="1.1" width="325px" height="150px" style="shape-rendering:geometricPrecision; text-rendering:geometricPrecision; image-rendering:optimizeQuality; fill-rule:evenodd; clip-rule:evenodd" xmlns:xlink="http://www.w3.org/1999/xlink">
<g><path style="opacity:1" fill="#72b6e3" d="M 165.5,16.5 C 162.017,17.2013 158.684,18.2013 155.5,19.5C 155.5,18.5 155.5,17.5 155.5,16.5C 156.286,14.2649 157.952,13.2649 160.5,13.5C 162.942,13.2858 164.608,14.2858 165.5,16.5 Z"/></g>
<g><path style="opacity:0.864" fill="#2667b1" d="M 154.5,21.5 C 158.081,22.2599 161.748,22.7599 165.5,23C 166.942,23.3768 167.942,24.2101 168.5,25.5C 165.022,25.1842 161.688,25.6842 158.5,27C 155.969,30.3575 153.302,33.5242 150.5,36.5C 150.5,34.8333 150.5,33.1667 150.5,31.5C 152.369,28.4223 153.702,25.089 154.5,21.5 Z"/></g>
<g><path style="opacity:0.723" fill="#2277bc" d="M 155.5,16.5 C 155.5,17.5 155.5,18.5 155.5,19.5C 158.684,18.2013 162.017,17.2013 165.5,16.5C 172.242,21.8696 179.575,26.203 187.5,29.5C 187.433,30.9587 187.766,32.2921 188.5,33.5C 181.829,30.8307 175.162,28.164 168.5,25.5C 167.942,24.2101 166.942,23.3768 165.5,23C 161.748,22.7599 158.081,22.2599 154.5,21.5C 154.216,19.5853 154.549,17.9187 155.5,16.5 Z"/></g>
<g><path style="opacity:0.996" fill="#2481c4" d="M 187.5,29.5 C 191.938,30.8853 196.271,32.552 200.5,34.5C 203.54,37.3224 207.206,39.1558 211.5,40C 213.742,41.4221 215.409,43.2555 216.5,45.5C 216.5,45.8333 216.5,46.1667 216.5,46.5C 217.134,47.9468 218.301,48.6134 220,48.5C 225.182,46.7164 230.349,45.0498 235.5,43.5C 236.546,45.7849 236.546,48.1183 235.5,50.5C 228.833,50.5 222.167,50.5 215.5,50.5C 213.027,47.1955 210.027,44.3622 206.5,42C 200.595,38.8797 194.595,36.0464 188.5,33.5C 187.766,32.2921 187.433,30.9587 187.5,29.5 Z"/></g>
<g><path style="opacity:1" fill="#2897d3" d="M 200.5,34.5 C 206.777,36.9367 213.11,37.9367 219.5,37.5C 219.5,37.8333 219.5,38.1667 219.5,38.5C 219.167,39.1667 218.833,39.8333 218.5,40.5C 216.787,41.6354 216.12,43.302 216.5,45.5C 215.409,43.2555 213.742,41.4221 211.5,40C 207.206,39.1558 203.54,37.3224 200.5,34.5 Z"/></g>
<g><path style="opacity:1" fill="#aed6f1" d="M 219.5,38.5 C 226.65,38.3203 227.15,39.6537 221,42.5C 219.699,42.3613 218.866,41.6946 218.5,40.5C 218.833,39.8333 219.167,39.1667 219.5,38.5 Z"/></g>
<g><path style="opacity:1" fill="#7ab6e3" d="M 227.5,36.5 C 228.456,37.6594 229.456,38.8261 230.5,40C 230.355,40.772 230.022,41.4387 229.5,42C 225.256,43.8035 220.922,45.3035 216.5,46.5C 216.5,46.1667 216.5,45.8333 216.5,45.5C 216.12,43.302 216.787,41.6354 218.5,40.5C 218.866,41.6946 219.699,42.3613 221,42.5C 227.15,39.6537 226.65,38.3203 219.5,38.5C 219.5,38.1667 219.5,37.8333 219.5,37.5C 222.054,36.612 224.721,36.2786 227.5,36.5 Z"/></g>
<g><path style="opacity:1" fill="#56a0d7" d="M 227.5,36.5 C 231.429,37.4308 234.095,39.7641 235.5,43.5C 230.349,45.0498 225.182,46.7164 220,48.5C 218.301,48.6134 217.134,47.9468 216.5,46.5C 220.922,45.3035 225.256,43.8035 229.5,42C 230.022,41.4387 230.355,40.772 230.5,40C 229.456,38.8261 228.456,37.6594 227.5,36.5 Z"/></g>
<g><path style="opacity:0.549" fill="#2180c3" d="M 150.5,31.5 C 150.5,33.1667 150.5,34.8333 150.5,36.5C 147.22,42.4409 143.553,48.1076 139.5,53.5C 139.634,51.7085 139.301,50.0418 138.5,48.5C 142.267,42.6204 146.267,36.9537 150.5,31.5 Z"/></g>
<g><path style="opacity:0.808" fill="#246bb4" d="M 215.5,50.5 C 222.167,50.5 228.833,50.5 235.5,50.5C 233.887,54.6085 230.887,57.1085 226.5,58C 224.234,59.4264 222.568,61.2598 221.5,63.5C 218.703,63.9666 217.369,65.6333 217.5,68.5C 216.833,68.8333 216.167,69.1667 215.5,69.5C 215.721,66.7212 215.388,64.0545 214.5,61.5C 214.851,58.7623 215.518,56.0956 216.5,53.5C 215.873,52.5832 215.539,51.5832 215.5,50.5 Z"/></g>
<g><path style="opacity:0.864" fill="#3199d5" d="M 138.5,48.5 C 139.301,50.0418 139.634,51.7085 139.5,53.5C 138.027,56.4469 136.527,59.4469 135,62.5C 133.851,65.3926 133.351,68.3926 133.5,71.5C 126.874,73.0422 120.207,74.3755 113.5,75.5C 113.205,73.2646 113.539,71.2646 114.5,69.5C 114.5,70.5 114.5,71.5 114.5,72.5C 119.546,71.4227 124.546,70.0894 129.5,68.5C 127.183,64.9102 123.849,63.5769 119.5,64.5C 127.999,61.749 134.332,56.4156 138.5,48.5 Z"/></g>
<g><path style="opacity:0.918" fill="#0b1a3d" d="M 271.5,62.5 C 286.594,62.4688 301.594,63.6354 316.5,66C 317.081,66.8926 317.415,67.8926 317.5,69C 316.907,72.1514 316.407,75.318 316,78.5C 315.586,78.9574 315.086,79.2907 314.5,79.5C 296.561,76.3048 278.561,75.8048 260.5,78C 274.844,78.4363 289.178,79.103 303.5,80C 308.806,80.2428 313.806,81.5762 318.5,84C 320.954,89.3961 321.121,94.8961 319,100.5C 313.302,104.784 306.802,106.951 299.5,107C 280.399,108.109 261.399,107.275 242.5,104.5C 242.739,100.158 243.073,95.8244 243.5,91.5C 262.786,94.3307 282.119,94.8307 301.5,93C 285.294,91.8414 268.961,90.8414 252.5,90C 243.18,88.8747 239.68,83.708 242,74.5C 244.156,68.8241 248.323,65.6575 254.5,65C 260.317,64.1914 265.983,63.358 271.5,62.5 Z"/></g>
<g><path style="opacity:0.927" fill="#0b1a3d" d="M 2.5,63.5 C 8.5,63.5 14.5,63.5 20.5,63.5C 20.3341,68.5111 20.5007,73.5111 21,78.5C 30.422,73.5389 39.922,68.7056 49.5,64C 59.4944,63.5002 69.4944,63.3335 79.5,63.5C 79.5,64.8333 79.5,66.1667 79.5,67.5C 67.1347,72.5156 55.1347,78.349 43.5,85C 55.8333,91.1667 68.1667,97.3333 80.5,103.5C 81.3857,104.325 81.719,105.325 81.5,106.5C 70.495,106.667 59.495,106.5 48.5,106C 39.5,101.5 30.5,97 21.5,92.5C 20.5067,97.1196 20.1734,101.786 20.5,106.5C 14.5,106.5 8.5,106.5 2.5,106.5C 2.5,92.1667 2.5,77.8333 2.5,63.5 Z"/></g>
<g><path style="opacity:0.931" fill="#0b1b3e" d="M 138.5,90.5 C 144.113,93.1129 148.446,97.1129 151.5,102.5C 132.461,109.305 113.461,109.138 94.5,102C 91,99.8333 88.1667,97 86,93.5C 85.5002,83.5056 85.3335,73.5056 85.5,63.5C 91.5,63.5 97.5,63.5 103.5,63.5C 103.334,71.5069 103.5,79.5069 104,87.5C 104.833,88.3333 105.667,89.1667 106.5,90C 117.16,93.101 127.827,93.2677 138.5,90.5 Z"/></g>
<g><path style="opacity:0.934" fill="#0c1b3e" d="M 156.5,99.5 C 155.833,99.5 155.167,99.5 154.5,99.5C 150.131,96.1314 146.464,92.1314 143.5,87.5C 143.5,79.5 143.5,71.5 143.5,63.5C 149.5,63.5 155.5,63.5 161.5,63.5C 161.666,73.5056 161.5,83.5056 161,93.5C 159.668,95.66 158.168,97.66 156.5,99.5 Z"/></g>
<g><path style="opacity:0.897" fill="#0b1b3e" d="M 221.5,63.5 C 226.5,63.5 231.5,63.5 236.5,63.5C 236.5,77.8333 236.5,92.1667 236.5,106.5C 230.167,106.5 223.833,106.5 217.5,106.5C 217.5,93.8333 217.5,81.1667 217.5,68.5C 217.369,65.6333 218.703,63.9666 221.5,63.5 Z"/></g>
<g><path style="opacity:1" fill="#71b4e2" d="M 119.5,64.5 C 123.849,63.5769 127.183,64.9102 129.5,68.5C 124.546,70.0894 119.546,71.4227 114.5,72.5C 114.5,71.5 114.5,70.5 114.5,69.5C 115.167,66.8333 116.833,65.1667 119.5,64.5 Z"/></g>
<g><path style="opacity:1" fill="#b1d7f1" d="M 120.5,65.5 C 121.873,65.3433 123.207,65.51 124.5,66C 122.691,68.2379 120.358,69.4046 117.5,69.5C 117.5,68.5 117.5,67.5 117.5,66.5C 118.791,66.7373 119.791,66.404 120.5,65.5 Z"/></g>
<g><path style="opacity:0.796" fill="#207ec2" d="M 214.5,61.5 C 215.388,64.0545 215.721,66.7212 215.5,69.5C 211.197,77.7816 206.53,85.7816 201.5,93.5C 201.5,90.8333 201.5,88.1667 201.5,85.5C 205.837,77.4922 210.17,69.4922 214.5,61.5 Z"/></g>
<g><path style="opacity:0.983" fill="#246ab3" d="M 135.5,87.5 C 130.924,84.6978 125.924,83.1978 120.5,83C 117.894,82.2082 115.894,80.7082 114.5,78.5C 120.229,78.7877 125.896,78.4544 131.5,77.5C 133.793,80.3645 135.126,83.6978 135.5,87.5 Z"/></g>
<g><path style="opacity:0.827" fill="#2077bb" d="M 133.5,71.5 C 134.772,78.1088 138.106,83.4421 143.5,87.5C 146.464,92.1314 150.131,96.1314 154.5,99.5C 154.062,99.4346 153.728,99.6012 153.5,100C 154.267,101.47 154.933,102.97 155.5,104.5C 153.938,104.267 152.605,103.6 151.5,102.5C 148.446,97.1129 144.113,93.1129 138.5,90.5C 137.694,89.2719 136.694,88.2719 135.5,87.5C 135.126,83.6978 133.793,80.3645 131.5,77.5C 125.896,78.4544 120.229,78.7877 114.5,78.5C 113.89,77.609 113.557,76.609 113.5,75.5C 120.207,74.3755 126.874,73.0422 133.5,71.5 Z"/></g>
<g><path style="opacity:0.689" fill="#2290ce" d="M 201.5,85.5 C 201.5,88.1667 201.5,90.8333 201.5,93.5C 199.75,97.3346 197.75,101.001 195.5,104.5C 195.721,101.721 195.388,99.0545 194.5,96.5C 196.473,92.543 198.806,88.8763 201.5,85.5 Z"/></g>
<g><path style="opacity:0.826" fill="#219dd8" d="M 194.5,96.5 C 195.388,99.0545 195.721,101.721 195.5,104.5C 193.978,110.052 193.311,115.718 193.5,121.5C 192.167,121.5 190.833,121.5 189.5,121.5C 189.5,120.833 189.5,120.167 189.5,119.5C 189.59,115.335 187.59,113.002 183.5,112.5C 181.833,112.5 180.167,112.5 178.5,112.5C 185.475,108.859 190.808,103.525 194.5,96.5 Z"/></g>
<g><path style="opacity:0.727" fill="#2290cf" d="M 154.5,99.5 C 155.167,99.5 155.833,99.5 156.5,99.5C 158.167,101.833 160.167,103.833 162.5,105.5C 163.167,108.5 163.833,111.5 164.5,114.5C 160.788,111.789 157.788,108.456 155.5,104.5C 154.933,102.97 154.267,101.47 153.5,100C 153.728,99.6012 154.062,99.4346 154.5,99.5 Z"/></g>
<g><path style="opacity:0.922" fill="#209ed9" d="M 162.5,105.5 C 166.587,109.709 171.587,112.042 177.5,112.5C 176.167,113.833 174.833,115.167 173.5,116.5C 171.926,118.102 171.259,120.102 171.5,122.5C 170.833,122.833 170.167,123.167 169.5,123.5C 168.087,120.339 166.42,117.339 164.5,114.5C 163.833,111.5 163.167,108.5 162.5,105.5 Z"/></g>
<g><path style="opacity:0.642" fill="#031233" d="M 12.5,115.5 C 13.552,115.351 14.552,115.517 15.5,116C 18.6468,119.981 21.9801,123.814 25.5,127.5C 17.8333,126.167 10.1667,126.167 2.5,127.5C 6.23316,123.773 9.5665,119.773 12.5,115.5 Z M 13.5,120.5 C 17.412,123.236 16.7453,124.07 11.5,123C 12.3805,122.292 13.0472,121.458 13.5,120.5 Z"/></g>
<g><path style="opacity:0.549" fill="#041333" d="M 26.5,115.5 C 27.8333,115.5 29.1667,115.5 30.5,115.5C 30.5,119.833 30.5,124.167 30.5,128.5C 29.1667,128.5 27.8333,128.5 26.5,128.5C 26.5,124.167 26.5,119.833 26.5,115.5 Z"/></g>
<g><path style="opacity:0.659" fill="#041233" d="M 44.5,115.5 C 49.2029,115.437 53.8696,115.771 58.5,116.5C 58.6567,117.873 58.49,119.207 58,120.5C 52.9684,118.046 47.9684,118.046 43,120.5C 42.2174,122.433 42.7174,123.933 44.5,125C 49.4353,125.176 54.2686,125.343 59,125.5C 59.1667,125.833 59.3333,126.167 59.5,126.5C 58.624,127.251 57.624,127.751 56.5,128C 51.8333,128.667 47.1667,128.667 42.5,128C 38.4696,125.713 37.6363,122.546 40,118.5C 41.4087,117.219 42.9087,116.219 44.5,115.5 Z"/></g>
<g><path style="opacity:0.691" fill="#031233" d="M 60.5,115.5 C 66.5,115.5 72.5,115.5 78.5,115.5C 78.5,116.5 78.5,117.5 78.5,118.5C 58.5,119.167 58.5,119.833 78.5,120.5C 78.5,121.5 78.5,122.5 78.5,123.5C 73.456,123.173 68.456,123.506 63.5,124.5C 68.7921,125.495 74.1254,125.828 79.5,125.5C 79.5,126.5 79.5,127.5 79.5,128.5C 73.1667,128.5 66.8333,128.5 60.5,128.5C 60.5,124.167 60.5,119.833 60.5,115.5 Z"/></g>
<g><path style="opacity:0.658" fill="#041233" d="M 80.5,115.5 C 85.9627,117.482 91.1293,120.149 96,123.5C 96.4974,120.854 96.6641,118.187 96.5,115.5C 110.833,115.5 125.167,115.5 139.5,115.5C 139.5,116.5 139.5,117.5 139.5,118.5C 134.456,118.173 129.456,118.506 124.5,119.5C 129.12,120.493 133.786,120.827 138.5,120.5C 138.5,121.5 138.5,122.5 138.5,123.5C 133.786,123.173 129.12,123.507 124.5,124.5C 129.456,125.494 134.456,125.827 139.5,125.5C 139.5,126.5 139.5,127.5 139.5,128.5C 133.167,128.5 126.833,128.5 120.5,128.5C 120.5,125.167 120.5,121.833 120.5,118.5C 117.833,118.5 115.167,118.5 112.5,118.5C 112.5,121.833 112.5,125.167 112.5,128.5C 111.167,128.5 109.833,128.5 108.5,128.5C 108.5,125.167 108.5,121.833 108.5,118.5C 105.833,118.5 103.167,118.5 100.5,118.5C 100.5,121.833 100.5,125.167 100.5,128.5C 94.6059,126.804 89.1059,124.137 84,120.5C 83.5026,123.146 83.3359,125.813 83.5,128.5C 82.5,128.5 81.5,128.5 80.5,128.5C 80.5,124.167 80.5,119.833 80.5,115.5 Z"/></g>
<g><path style="opacity:0.648" fill="#031233" d="M 140.5,115.5 C 146.593,115.139 152.593,115.639 158.5,117C 161.07,119.915 160.737,122.581 157.5,125C 160.917,126.24 161.083,127.407 158,128.5C 155.62,127.799 153.453,126.633 151.5,125C 149.19,124.503 146.857,124.337 144.5,124.5C 144.5,125.833 144.5,127.167 144.5,128.5C 143.167,128.5 141.833,128.5 140.5,128.5C 140.5,124.167 140.5,119.833 140.5,115.5 Z M 144.5,118.5 C 160.353,120.089 160.353,121.089 144.5,121.5C 144.5,120.5 144.5,119.5 144.5,118.5 Z"/></g>
<g><path style="opacity:1" fill="#a5d4f1" d="M 177.5,112.5 C 177.833,112.5 178.167,112.5 178.5,112.5C 180.167,112.5 181.833,112.5 183.5,112.5C 183.374,115.595 181.707,117.428 178.5,118C 177.667,118.167 176.833,118.333 176,118.5C 174.624,118.316 173.791,117.649 173.5,116.5C 174.833,115.167 176.167,113.833 177.5,112.5 Z"/></g>
<g><path style="opacity:1" fill="#74b0df" d="M 183.5,112.5 C 187.59,113.002 189.59,115.335 189.5,119.5C 183.573,121.148 177.573,122.482 171.5,123.5C 171.5,123.167 171.5,122.833 171.5,122.5C 171.259,120.102 171.926,118.102 173.5,116.5C 173.791,117.649 174.624,118.316 176,118.5C 176.833,118.333 177.667,118.167 178.5,118C 181.707,117.428 183.374,115.595 183.5,112.5 Z"/></g>
<g><path style="opacity:1" fill="#619cd4" d="M 189.5,119.5 C 189.5,120.167 189.5,120.833 189.5,121.5C 184.472,122.954 179.472,124.62 174.5,126.5C 173.167,125.833 172.167,124.833 171.5,123.5C 177.573,122.482 183.573,121.148 189.5,119.5 Z"/></g>
<g><path style="opacity:0.98" fill="#3887c7" d="M 189.5,121.5 C 190.833,121.5 192.167,121.5 193.5,121.5C 194.833,123.167 194.833,124.833 193.5,126.5C 186.989,127.136 180.655,127.136 174.5,126.5C 179.472,124.62 184.472,122.954 189.5,121.5 Z"/></g>
<g><path style="opacity:0.893" fill="#2372b9" d="M 171.5,122.5 C 171.5,122.833 171.5,123.167 171.5,123.5C 172.167,124.833 173.167,125.833 174.5,126.5C 180.655,127.136 186.989,127.136 193.5,126.5C 193.608,128.514 192.942,130.18 191.5,131.5C 185.167,130.167 178.833,130.167 172.5,131.5C 170.733,129.208 169.733,126.542 169.5,123.5C 170.167,123.167 170.833,122.833 171.5,122.5 Z"/></g>
<g><path style="opacity:0.896" fill="#2766b0" d="M 191.5,131.5 C 187.616,135.226 182.949,136.393 177.5,135C 175.416,134.303 173.749,133.136 172.5,131.5C 178.833,130.167 185.167,130.167 191.5,131.5 Z"/></g>
</svg>
