<svg id="svg" version="1.1" xmlns="http://www.w3.org/2000/svg" xmlns:xlink="http://www.w3.org/1999/xlink" width="400" height="510" viewBox="0, 0, 400,510"><g id="svgg"><path id="path0" d="M10.516 217.100 C 10.641 218.145,11.557 222.420,12.551 226.600 C 22.425 268.131,37.096 306.723,57.516 344.879 L 62.161 353.559 64.854 351.079 C 66.335 349.716,79.394 337.263,93.874 323.407 C 108.353 309.551,127.940 290.834,137.400 281.813 C 146.860 272.792,164.714 255.734,177.075 243.906 C 189.437 232.078,199.659 222.400,199.791 222.400 C 199.923 222.400,212.220 234.060,227.116 248.311 C 242.012 262.561,272.290 291.469,294.400 312.550 C 316.510 333.631,335.271 351.570,336.091 352.415 L 337.582 353.950 340.601 348.475 C 358.014 316.886,373.614 278.261,382.958 243.600 C 385.439 234.395,389.600 217.067,389.600 215.938 C 389.600 215.222,384.011 215.200,199.944 215.200 L 10.289 215.200 10.516 217.100 M185.344 341.881 C 165.600 361.014,113.738 411.121,109.700 414.965 C 107.885 416.692,106.400 418.326,106.400 418.595 C 106.400 419.522,121.357 437.022,131.018 447.400 C 143.034 460.307,151.573 468.670,167.000 482.640 C 176.371 491.126,199.291 509.407,200.142 509.074 C 200.803 508.815,212.871 499.435,219.200 494.261 C 235.019 481.329,253.156 464.363,268.079 448.536 C 277.402 438.649,293.600 419.816,293.600 418.863 C 293.600 418.644,283.655 408.867,271.500 397.137 C 259.345 385.407,238.681 365.457,225.581 352.805 C 212.481 340.152,201.300 329.386,200.735 328.881 L 199.708 327.962 185.344 341.881 " stroke="none" fill="#ea7425" fill-rule="evenodd"></path><path id="path1" d="M178.464 90.417 C 176.850 90.620,172.890 91.321,169.664 91.975 C 157.001 94.543,156.728 94.575,147.000 94.588 C 137.421 94.601,134.755 94.284,128.788 92.427 L 126.396 91.683 126.498 134.141 L 126.600 176.600 129.205 177.471 C 138.787 180.676,150.638 180.715,166.472 177.596 C 183.626 174.215,190.437 174.394,196.900 178.392 L 198.800 179.567 198.800 137.837 C 198.800 96.847,198.786 96.090,198.008 95.101 C 194.986 91.259,187.006 89.347,178.464 90.417 M210.462 90.614 C 207.437 91.271,205.140 92.333,203.100 94.019 L 201.600 95.258 201.600 137.246 L 201.600 179.234 203.332 178.219 C 210.181 174.205,216.281 174.196,236.600 178.168 C 249.700 180.730,263.290 180.350,271.749 177.185 L 274.033 176.330 273.917 143.065 C 273.853 124.769,273.749 105.726,273.686 100.746 L 273.571 91.693 271.238 92.419 C 260.942 95.624,248.881 95.620,232.600 92.408 C 220.116 89.945,215.332 89.557,210.462 90.614 M120.800 101.957 L 118.600 102.637 118.498 144.867 L 118.396 187.097 119.899 187.337 C 127.560 188.562,138.228 189.321,147.800 189.320 C 157.675 189.320,161.536 189.082,182.000 187.211 C 184.310 187.000,187.100 186.821,188.200 186.813 L 190.200 186.798 190.067 189.373 L 189.934 191.947 192.467 192.723 C 197.502 194.266,202.401 194.226,207.885 192.597 L 209.839 192.017 209.669 189.347 L 209.499 186.677 214.249 186.957 C 216.862 187.111,222.510 187.591,226.800 188.023 C 240.226 189.376,251.147 189.777,259.985 189.242 C 268.432 188.730,280.705 187.428,281.135 186.999 C 281.281 186.853,281.400 167.814,281.400 144.691 L 281.400 102.648 279.120 101.971 C 277.866 101.598,276.741 101.393,276.620 101.514 C 276.499 101.634,276.400 118.903,276.400 139.889 L 276.400 178.044 274.103 179.060 C 268.399 181.582,260.848 182.606,250.456 182.266 C 242.801 182.015,241.973 181.905,229.000 179.408 C 214.659 176.649,205.695 177.801,202.077 182.868 C 201.143 184.177,198.830 183.830,197.200 182.137 C 195.250 180.110,191.640 178.529,187.800 178.019 C 182.856 177.363,179.052 177.836,161.400 181.299 C 151.073 183.325,133.757 182.317,126.411 179.263 L 123.800 178.177 123.698 139.689 C 123.642 118.520,123.462 101.218,123.298 101.239 C 123.134 101.261,122.010 101.584,120.800 101.957 M244.595 107.769 C 251.053 112.695,246.265 122.918,238.482 120.822 C 230.066 118.556,232.160 105.952,240.861 106.502 C 242.581 106.611,243.474 106.914,244.595 107.769 M143.400 107.200 C 143.264 107.420,142.798 107.600,142.364 107.600 C 141.930 107.600,141.482 107.843,141.368 108.139 C 141.108 108.817,144.831 117.345,145.200 116.916 C 145.844 116.167,148.437 109.487,148.322 108.874 C 148.252 108.503,147.791 108.022,147.298 107.805 C 145.672 107.090,146.355 106.800,149.667 106.800 C 152.938 106.800,153.201 106.937,151.507 107.760 C 150.891 108.059,149.580 110.285,147.420 114.700 C 145.671 118.275,144.121 121.200,143.977 121.200 C 143.832 121.200,142.945 119.445,142.004 117.300 C 139.642 111.913,137.651 108.000,137.271 108.000 C 137.096 108.000,136.604 107.736,136.176 107.413 C 135.477 106.884,135.810 106.824,139.524 106.813 C 142.174 106.805,143.559 106.943,143.400 107.200 M167.357 107.433 C 167.676 108.264,167.670 110.400,167.348 110.400 C 167.210 110.400,166.400 109.770,165.547 109.000 C 164.172 107.758,163.750 107.600,161.799 107.600 L 159.600 107.600 159.600 110.200 C 159.600 113.345,160.733 113.813,162.851 111.545 C 164.379 109.910,164.510 110.133,164.089 113.654 C 163.767 116.349,163.698 116.508,163.287 115.524 C 162.792 114.338,161.695 113.600,160.426 113.600 C 159.009 113.600,159.191 119.064,160.626 119.610 C 162.930 120.486,165.917 119.726,166.933 118.006 C 168.057 116.104,168.868 116.418,168.722 118.700 L 168.600 120.600 161.300 120.709 C 154.185 120.815,152.636 120.554,155.163 119.673 C 157.172 118.972,157.388 108.024,155.400 107.666 C 152.554 107.154,154.628 106.800,160.477 106.800 C 166.160 106.800,167.149 106.891,167.357 107.433 M186.000 109.000 C 186.000 111.541,185.519 111.786,184.366 109.832 C 183.626 108.579,181.949 107.600,180.540 107.600 C 180.111 107.600,180.000 108.799,180.000 113.421 L 180.000 119.242 181.200 119.660 C 183.383 120.421,182.452 120.800,178.400 120.800 C 174.501 120.800,173.185 120.330,175.600 119.800 C 176.787 119.539,176.801 119.505,176.885 116.668 C 176.984 113.322,176.790 107.873,176.562 107.636 C 176.095 107.148,173.307 108.522,172.600 109.590 C 171.533 111.200,171.025 110.928,170.878 108.669 L 170.756 106.800 178.378 106.800 L 186.000 106.800 186.000 109.000 M221.633 111.600 C 224.108 114.241,226.205 116.328,226.294 116.240 C 227.433 115.100,226.115 107.600,224.775 107.600 C 224.375 107.600,223.936 107.420,223.800 107.200 C 223.642 106.945,224.826 106.805,227.076 106.813 C 230.715 106.826,230.780 106.889,228.544 108.238 C 227.908 108.622,227.793 109.456,227.609 115.038 L 227.400 121.400 222.000 115.856 L 216.600 110.311 216.800 114.645 C 216.987 118.690,217.062 119.011,217.934 119.444 C 220.149 120.544,219.837 120.800,216.280 120.800 C 212.329 120.800,212.291 120.779,214.200 119.653 L 215.600 118.827 215.600 114.195 C 215.600 109.478,214.922 107.600,213.218 107.600 C 212.988 107.600,212.800 107.420,212.800 107.200 C 212.800 106.980,213.775 106.800,214.967 106.800 L 217.135 106.800 221.633 111.600 M257.200 107.172 C 257.200 107.377,256.795 107.602,256.300 107.672 C 254.987 107.859,255.189 109.532,257.004 113.503 C 258.846 117.532,258.684 117.535,260.505 113.432 C 262.320 109.342,262.389 108.325,260.900 107.571 L 259.800 107.014 261.500 106.884 C 262.435 106.812,263.965 106.809,264.900 106.877 L 266.600 107.000 265.270 107.726 C 263.912 108.467,263.894 108.498,259.347 118.375 C 257.665 122.029,257.787 122.126,254.385 114.438 C 252.247 109.605,251.623 108.551,250.518 107.899 C 248.683 106.816,248.721 106.800,253.200 106.800 C 255.401 106.800,257.200 106.967,257.200 107.172 M238.897 107.730 C 236.015 109.330,235.388 115.860,237.835 118.769 C 239.155 120.338,241.401 120.490,242.704 119.100 C 246.657 114.879,243.422 105.217,238.897 107.730 M108.400 122.800 L 108.400 129.600 112.000 129.600 L 115.600 129.600 115.600 122.800 L 115.600 116.000 112.000 116.000 L 108.400 116.000 108.400 122.800 M284.000 120.944 C 284.000 123.663,284.114 126.723,284.254 127.744 L 284.509 129.600 288.054 129.600 L 291.600 129.600 291.600 122.800 L 291.600 116.000 287.800 116.000 L 284.000 116.000 284.000 120.944 M180.223 128.809 C 180.948 129.085,181.456 129.086,181.785 128.812 C 182.544 128.183,182.800 128.752,182.800 131.067 C 182.800 133.593,182.310 133.775,181.225 131.649 C 180.091 129.426,177.283 128.761,175.826 130.371 C 174.403 131.943,175.588 133.169,179.888 134.574 C 186.909 136.868,184.079 144.345,176.776 142.795 C 175.491 142.522,174.161 142.406,173.820 142.537 C 173.303 142.735,173.200 142.379,173.200 140.387 C 173.200 137.605,173.663 137.372,174.793 139.587 C 176.029 142.010,179.136 142.906,180.869 141.338 C 182.581 139.789,181.367 137.903,178.033 136.934 C 176.646 136.531,175.316 135.796,174.504 134.984 C 171.030 131.510,175.274 126.927,180.223 128.809 M235.489 128.900 C 235.701 129.175,236.930 131.912,238.220 134.982 C 240.494 140.398,241.024 141.273,242.635 142.276 C 243.260 142.666,242.685 142.757,239.500 142.776 C 236.018 142.797,234.135 142.264,236.500 141.927 C 237.497 141.785,237.612 140.697,236.843 138.700 C 236.148 136.894,231.481 137.018,230.839 138.860 C 230.153 140.828,230.290 141.557,231.400 141.836 C 233.347 142.324,232.360 142.800,229.400 142.800 C 226.280 142.800,225.681 142.456,227.420 141.664 C 228.126 141.342,228.879 140.245,229.865 138.099 C 234.652 127.689,234.608 127.761,235.489 128.900 M152.400 131.000 C 152.400 133.471,151.928 133.794,150.984 131.968 C 150.626 131.276,149.751 130.488,148.986 130.168 C 146.356 129.070,146.400 128.981,146.400 135.421 L 146.400 141.242 147.600 141.660 C 149.783 142.421,148.852 142.800,144.800 142.800 C 140.949 142.800,139.560 142.348,141.946 141.871 C 143.363 141.587,143.602 140.626,143.595 135.250 C 143.586 128.885,142.412 127.929,139.154 131.636 L 137.709 133.281 137.488 132.140 C 137.366 131.513,137.364 130.505,137.483 129.900 L 137.700 128.800 145.050 128.800 L 152.400 128.800 152.400 131.000 M168.000 130.600 C 168.000 132.769,167.912 132.787,166.206 130.979 C 164.930 129.626,164.754 129.564,162.533 129.679 L 160.200 129.800 160.081 132.300 L 159.962 134.800 161.181 134.800 C 162.358 134.800,164.000 133.635,164.000 132.800 C 164.000 132.580,164.180 132.400,164.400 132.400 C 164.631 132.400,164.800 133.667,164.800 135.400 C 164.800 138.374,164.263 139.388,163.757 137.371 C 163.499 136.342,162.249 135.600,160.774 135.600 C 160.098 135.600,160.000 135.893,160.000 137.924 C 160.000 141.056,160.524 141.678,163.357 141.913 L 165.634 142.102 167.417 140.160 L 169.200 138.217 169.200 140.509 L 169.200 142.800 161.800 142.800 C 157.133 142.800,154.400 142.652,154.400 142.400 C 154.400 142.180,154.747 142.000,155.171 142.000 C 156.918 142.000,157.200 141.076,157.200 135.361 L 157.200 129.980 156.000 129.740 C 153.146 129.169,155.267 128.800,161.400 128.800 L 168.000 128.800 168.000 130.600 M226.000 131.000 C 226.000 133.427,225.529 133.797,224.637 132.071 C 223.847 130.544,223.265 130.121,221.500 129.791 L 220.000 129.511 220.000 135.350 L 220.000 141.189 221.400 141.774 C 223.529 142.664,223.158 142.800,218.600 142.800 C 214.319 142.800,213.372 142.468,215.700 141.783 L 217.000 141.400 217.111 135.446 L 217.222 129.492 215.711 129.733 C 214.592 129.912,213.814 130.419,212.712 131.687 L 211.224 133.400 211.212 131.100 L 211.200 128.800 218.600 128.800 L 226.000 128.800 226.000 131.000 M252.250 131.900 C 253.037 133.605,254.032 135.803,254.462 136.785 L 255.244 138.569 256.926 134.985 C 260.045 128.340,259.607 128.800,262.810 128.800 C 264.403 128.800,265.600 128.972,265.600 129.200 C 265.600 129.420,265.276 129.600,264.880 129.600 C 263.428 129.600,263.200 130.402,263.200 135.506 C 263.200 140.706,263.522 142.000,264.814 142.000 C 265.246 142.000,265.600 142.180,265.600 142.400 C 265.600 142.639,264.067 142.800,261.800 142.800 C 259.533 142.800,258.000 142.639,258.000 142.400 C 258.000 142.180,258.338 142.000,258.751 142.000 C 260.213 142.000,260.429 141.113,260.312 135.586 L 260.200 130.283 257.433 136.354 C 255.729 140.092,254.523 142.283,254.294 142.054 C 254.089 141.849,252.693 139.189,251.191 136.141 L 248.460 130.600 248.430 135.500 C 248.399 140.635,248.854 142.000,250.600 142.000 C 250.930 142.000,251.200 142.180,251.200 142.400 C 251.200 142.636,249.784 142.800,247.751 142.800 C 244.731 142.800,244.364 142.725,244.800 142.200 C 245.074 141.870,245.540 141.600,245.835 141.600 C 246.853 141.600,247.200 140.038,247.200 135.455 C 247.200 130.576,246.862 129.600,245.171 129.600 C 244.747 129.600,244.400 129.420,244.400 129.200 C 244.400 128.967,245.737 128.800,247.610 128.800 L 250.820 128.800 252.250 131.900 M232.847 133.980 C 231.699 136.649,231.735 136.758,233.700 136.507 C 235.873 136.230,235.802 136.356,234.983 134.211 C 234.033 131.722,233.828 131.700,232.847 133.980 M157.200 152.600 C 157.200 154.508,156.707 154.921,156.002 153.604 C 155.326 152.341,153.372 151.544,151.279 151.679 L 149.400 151.800 149.281 154.300 L 149.162 156.800 150.381 156.800 C 151.558 156.800,153.200 155.635,153.200 154.800 C 153.200 154.580,153.380 154.400,153.600 154.400 C 153.831 154.400,154.000 155.667,154.000 157.400 C 154.000 160.471,153.514 161.277,152.797 159.393 C 152.434 158.437,151.023 157.600,149.774 157.600 C 149.078 157.600,148.953 161.992,149.614 163.226 C 150.469 164.824,154.630 164.318,156.400 162.400 C 158.281 160.362,158.400 160.386,158.400 162.800 L 158.400 164.800 150.976 164.800 C 146.129 164.800,143.639 164.661,143.800 164.400 C 143.936 164.180,144.294 164.000,144.595 164.000 C 146.083 164.000,146.400 162.884,146.400 157.651 C 146.400 152.397,146.179 151.600,144.720 151.600 C 144.324 151.600,144.000 151.420,144.000 151.200 C 144.000 150.949,146.467 150.800,150.600 150.800 L 157.200 150.800 157.200 152.600 M170.362 155.900 L 175.192 161.000 175.196 157.950 C 175.202 153.352,174.920 152.409,173.341 151.750 C 171.370 150.926,171.643 150.800,175.400 150.800 C 177.400 150.800,178.800 150.965,178.800 151.200 C 178.800 151.420,178.558 151.600,178.262 151.600 C 176.690 151.600,176.340 152.930,176.325 158.969 C 176.317 162.180,176.149 164.908,175.952 165.029 C 175.756 165.151,173.263 162.854,170.414 159.925 L 165.234 154.600 165.217 158.500 C 165.199 162.567,165.768 164.000,167.400 164.000 C 167.730 164.000,168.000 164.180,168.000 164.400 C 168.000 164.633,166.667 164.800,164.800 164.800 C 161.419 164.800,160.815 164.472,162.812 163.718 L 164.024 163.260 163.912 158.138 L 163.800 153.015 162.515 152.207 C 160.714 151.075,160.880 150.800,163.366 150.800 L 165.533 150.800 170.362 155.900 M225.600 153.000 C 225.600 155.556,225.332 155.703,224.111 153.817 C 223.255 152.496,220.775 151.321,219.938 151.839 C 219.752 151.953,219.600 154.454,219.600 157.395 C 219.600 163.074,219.885 164.000,221.629 164.000 C 222.053 164.000,222.400 164.180,222.400 164.400 C 222.400 164.641,220.725 164.800,218.176 164.800 C 214.091 164.800,212.993 164.373,215.605 163.799 L 216.800 163.536 216.800 157.568 C 216.800 150.983,216.841 151.071,214.269 152.145 C 213.551 152.445,212.653 153.165,212.273 153.745 C 211.243 155.317,210.800 155.032,210.800 152.800 L 210.800 150.800 218.200 150.800 L 225.600 150.800 225.600 153.000 M234.400 151.172 C 234.400 151.377,233.997 151.602,233.504 151.672 C 233.007 151.743,232.544 152.137,232.464 152.556 C 232.281 153.514,235.606 161.362,236.010 160.925 C 236.648 160.235,239.200 153.913,239.200 153.024 C 239.200 152.358,238.911 152.014,238.200 151.836 C 236.227 151.341,237.236 150.800,240.133 150.800 C 243.554 150.800,244.058 151.067,242.319 151.956 C 241.261 152.497,240.601 153.585,238.184 158.782 C 236.602 162.182,235.136 165.021,234.926 165.091 C 234.716 165.161,233.496 162.830,232.215 159.909 C 229.308 153.284,228.581 152.061,227.367 151.756 C 225.254 151.226,226.604 150.800,230.400 150.800 C 232.601 150.800,234.400 150.967,234.400 151.172 M253.346 155.694 L 255.633 160.588 257.173 157.111 C 259.939 150.869,260.005 150.800,263.233 150.800 C 266.339 150.800,266.515 150.913,264.789 151.806 L 263.578 152.432 263.689 157.905 C 263.795 163.140,263.839 163.397,264.707 163.829 C 266.420 164.682,266.125 164.800,262.267 164.800 C 259.956 164.800,258.400 164.639,258.400 164.400 C 258.400 164.180,258.754 164.000,259.186 164.000 C 260.533 164.000,260.830 162.695,260.712 157.304 L 260.600 152.200 257.803 158.300 C 256.265 161.655,254.898 164.400,254.766 164.400 C 254.633 164.400,253.250 161.745,251.691 158.500 L 248.858 152.600 248.829 157.569 C 248.799 162.662,249.176 164.000,250.638 164.000 C 250.921 164.000,251.264 164.180,251.400 164.400 C 251.557 164.655,250.404 164.800,248.224 164.800 C 244.673 164.800,243.986 164.483,245.938 163.746 C 248.316 162.848,248.325 152.311,245.948 151.789 C 243.778 151.312,244.804 150.800,247.930 150.800 L 251.059 150.800 253.346 155.694 M108.400 164.000 L 108.400 170.800 112.000 170.800 L 115.600 170.800 115.600 164.633 C 115.600 161.241,115.709 158.181,115.843 157.833 C 116.054 157.283,115.583 157.200,112.243 157.200 L 108.400 157.200 108.400 164.000 M284.000 164.000 L 284.000 170.800 287.800 170.800 L 291.600 170.800 291.600 164.000 L 291.600 157.200 287.800 157.200 L 284.000 157.200 284.000 164.000 " stroke="none" fill="#fafafa" fill-rule="evenodd"></path><path id="path2" d="M197.760 4.301 C 159.701 65.678,79.555 96.345,8.110 76.870 C 0.979 74.926,1.740 74.853,1.460 77.505 C 0.105 90.362,-0.360 133.748,0.709 147.600 C 2.354 168.900,3.785 180.667,7.033 199.600 C 8.810 209.958,10.244 216.806,10.445 215.896 C 10.593 215.225,19.536 215.192,200.256 215.197 L 389.913 215.202 390.570 211.701 C 395.120 187.466,397.830 166.962,399.279 145.800 C 400.370 129.884,399.639 76.706,398.312 75.379 C 398.240 75.307,395.106 76.040,391.346 77.008 C 318.909 95.657,243.314 67.034,203.017 5.700 C 199.634 0.551,200.021 0.654,197.760 4.301 M189.680 90.446 C 192.631 91.066,195.531 92.507,197.300 94.230 L 198.800 95.691 198.800 137.646 C 198.800 160.721,198.718 179.600,198.618 179.600 C 198.518 179.600,197.784 179.158,196.988 178.618 C 191.041 174.582,183.654 174.325,167.260 177.584 C 150.664 180.883,137.398 180.796,128.200 177.329 L 126.200 176.575 126.098 134.087 C 126.017 100.224,126.098 91.602,126.498 91.610 C 126.774 91.615,128.012 91.958,129.248 92.372 C 133.711 93.866,139.027 94.523,146.800 94.542 C 154.761 94.562,156.356 94.376,168.600 92.002 C 179.621 89.865,185.022 89.466,189.680 90.446 M228.600 91.394 C 243.200 94.311,244.597 94.491,252.800 94.509 C 261.300 94.527,266.153 93.916,271.231 92.190 L 274.004 91.246 273.902 133.922 L 273.800 176.597 271.400 177.464 C 266.409 179.268,262.048 179.802,252.600 179.766 C 243.191 179.731,244.065 179.843,227.600 176.564 C 217.195 174.491,209.494 175.035,203.700 178.251 L 201.200 179.639 201.200 137.671 L 201.200 95.702 203.012 94.032 C 207.597 89.805,216.211 88.917,228.600 91.394 M123.698 139.500 L 123.800 177.800 125.600 178.692 C 133.974 182.844,150.695 183.363,167.084 179.980 C 184.273 176.432,191.708 176.886,197.167 181.817 C 199.227 183.679,200.773 183.679,202.833 181.817 C 207.969 177.177,215.356 176.517,230.000 179.388 C 250.113 183.332,263.514 183.250,273.500 179.124 L 276.400 177.925 276.400 139.519 L 276.400 101.113 277.500 101.379 C 278.105 101.525,279.276 101.822,280.102 102.038 L 281.604 102.432 281.502 144.916 L 281.400 187.400 273.600 188.340 C 261.626 189.782,241.883 189.770,227.200 188.312 C 221.370 187.733,215.123 187.144,213.319 187.004 L 210.038 186.748 209.919 189.459 L 209.800 192.170 207.400 192.957 C 203.950 194.087,195.541 194.081,192.400 192.945 L 190.200 192.150 190.081 189.430 L 189.961 186.710 187.081 186.960 C 185.496 187.098,178.890 187.701,172.400 188.300 C 156.483 189.771,138.526 189.784,126.400 188.333 L 118.600 187.400 118.498 144.952 L 118.396 102.503 120.498 101.884 C 121.654 101.543,122.824 101.250,123.098 101.232 C 123.491 101.207,123.617 109.243,123.698 139.500 M238.038 106.897 C 234.941 107.930,232.838 111.574,233.380 114.965 C 234.617 122.700,245.983 122.692,247.435 114.955 C 248.424 109.684,243.174 105.182,238.038 106.897 M136.688 107.589 C 138.052 108.420,139.452 110.889,142.197 117.300 C 143.021 119.225,143.821 120.800,143.976 120.800 C 144.131 120.800,145.627 117.920,147.301 114.400 C 149.793 109.163,150.550 107.912,151.473 107.513 L 152.600 107.025 150.889 106.889 C 149.949 106.814,148.509 106.815,147.689 106.892 L 146.200 107.030 147.300 107.505 C 148.806 108.155,148.732 109.286,146.900 113.636 C 145.094 117.925,145.038 117.918,142.922 113.168 C 141.022 108.902,140.801 107.600,141.976 107.600 C 142.403 107.600,142.864 107.420,143.000 107.200 C 143.158 106.944,141.838 106.801,139.324 106.801 L 135.400 106.803 136.688 107.589 M155.500 107.434 L 156.800 108.002 156.800 112.975 C 156.800 118.799,156.488 119.969,154.910 120.073 C 154.299 120.114,156.860 120.256,160.600 120.389 C 168.776 120.681,168.400 120.773,168.400 118.491 L 168.400 116.667 166.861 118.333 C 165.388 119.929,165.222 120.000,162.961 119.994 C 159.691 119.985,159.458 119.759,159.269 116.423 L 159.110 113.600 160.455 113.606 C 162.139 113.614,162.796 114.024,163.433 115.464 C 163.890 116.498,163.937 116.313,163.955 113.400 C 163.971 110.870,163.884 110.368,163.538 111.000 C 162.846 112.265,161.951 112.800,160.524 112.800 L 159.200 112.800 159.200 110.251 L 159.200 107.702 160.715 107.460 C 162.741 107.136,164.988 107.805,165.939 109.014 C 166.998 110.360,167.200 110.262,167.200 108.400 L 167.200 106.800 160.700 106.833 C 154.724 106.863,154.305 106.911,155.500 107.434 M171.200 108.867 L 171.200 110.933 172.739 109.267 C 174.004 107.896,174.537 107.600,175.739 107.600 L 177.200 107.600 177.200 113.351 C 177.200 119.458,177.112 119.756,175.200 120.107 C 174.650 120.208,176.000 120.304,178.200 120.320 C 181.209 120.342,181.955 120.252,181.211 119.955 C 179.696 119.350,179.613 118.994,179.606 113.100 L 179.600 107.600 180.946 107.600 C 182.428 107.600,184.211 108.776,184.603 110.010 C 185.066 111.467,185.600 110.819,185.600 108.800 L 185.600 106.800 178.400 106.800 L 171.200 106.800 171.200 108.867 M213.365 107.324 C 215.527 108.670,215.600 108.895,215.600 114.219 L 215.600 119.239 214.300 119.804 C 213.039 120.352,213.097 120.369,216.200 120.369 C 219.232 120.369,219.335 120.340,218.160 119.829 C 216.706 119.196,216.411 118.047,216.405 113.000 L 216.401 109.800 221.634 115.300 C 224.511 118.325,227.031 120.800,227.233 120.800 C 227.439 120.800,227.603 118.209,227.606 114.900 C 227.613 108.497,227.631 108.421,229.400 107.474 C 230.585 106.840,230.558 106.832,227.220 106.816 C 224.166 106.802,223.164 107.264,225.382 107.663 C 226.427 107.851,226.713 109.074,226.760 113.555 L 226.800 117.310 221.762 112.055 L 216.725 106.800 214.662 106.824 C 212.900 106.844,212.711 106.916,213.365 107.324 M250.165 107.324 C 251.784 108.332,252.345 109.246,254.833 114.931 C 256.245 118.157,257.560 120.743,257.755 120.679 C 257.951 120.615,259.391 117.809,260.955 114.443 C 263.442 109.094,263.976 108.229,265.200 107.578 L 266.600 106.834 263.233 106.817 C 259.857 106.800,259.609 106.923,261.293 107.782 C 262.510 108.402,262.335 109.707,260.474 113.900 C 258.591 118.144,258.779 118.247,255.947 111.445 C 254.547 108.081,254.548 108.163,255.900 107.429 C 256.940 106.865,256.791 106.832,253.200 106.840 C 250.097 106.846,249.540 106.934,250.165 107.324 M242.313 107.824 C 245.446 110.018,245.350 117.773,242.164 119.860 C 239.771 121.428,236.739 119.133,236.167 115.322 C 235.357 109.921,238.986 105.494,242.313 107.824 M116.000 122.800 L 116.000 130.000 112.200 130.000 L 108.400 130.000 108.400 122.800 L 108.400 115.600 112.200 115.600 L 116.000 115.600 116.000 122.800 M291.600 122.800 L 291.600 130.000 287.800 130.000 L 284.000 130.000 284.000 122.800 L 284.000 115.600 287.800 115.600 L 291.600 115.600 291.600 122.800 M175.731 128.965 C 171.707 130.774,173.034 135.081,178.139 136.780 C 181.306 137.834,182.393 139.020,181.662 140.624 C 180.712 142.709,177.124 142.864,175.601 140.885 C 175.142 140.288,174.419 139.350,173.996 138.800 L 173.227 137.800 173.213 140.072 L 173.200 142.343 174.500 142.341 C 175.215 142.340,176.806 142.463,178.035 142.614 C 184.868 143.453,185.973 136.935,179.400 134.555 C 175.198 133.034,173.983 131.298,176.089 129.823 C 177.977 128.500,180.171 129.407,181.876 132.215 C 182.287 132.891,182.356 132.715,182.376 130.957 C 182.399 128.988,182.361 128.915,181.300 128.925 C 180.695 128.930,179.480 128.813,178.600 128.665 C 177.543 128.486,176.569 128.588,175.731 128.965 M234.221 129.311 C 233.862 129.860,232.679 132.321,231.591 134.780 C 229.160 140.280,228.494 141.427,227.432 141.942 C 226.792 142.253,227.247 142.340,229.400 142.318 C 230.940 142.303,231.784 142.212,231.276 142.115 C 227.577 141.408,231.252 136.887,235.075 137.441 C 237.433 137.782,238.887 141.916,236.700 142.059 C 236.205 142.091,237.420 142.250,239.400 142.412 C 243.340 142.733,243.978 142.630,242.096 141.974 C 240.816 141.527,240.788 141.474,236.486 131.400 C 235.149 128.271,234.996 128.129,234.221 129.311 M137.600 130.867 L 137.600 132.933 139.139 131.267 C 140.404 129.896,140.937 129.600,142.139 129.600 L 143.600 129.600 143.600 135.351 C 143.600 141.458,143.512 141.756,141.600 142.107 C 141.050 142.208,142.490 142.299,144.800 142.309 C 147.933 142.323,148.683 142.236,147.753 141.966 C 146.222 141.522,146.011 140.573,146.004 134.100 L 146.000 129.600 147.462 129.600 C 148.650 129.600,149.212 129.903,150.462 131.217 L 152.000 132.834 152.000 130.817 L 152.000 128.800 144.800 128.800 L 137.600 128.800 137.600 130.867 M155.840 129.371 C 158.389 130.481,158.354 141.503,155.800 142.049 C 155.140 142.190,157.885 142.327,161.900 142.353 L 169.200 142.400 169.200 140.600 C 169.200 139.610,169.020 138.800,168.800 138.800 C 168.580 138.800,168.400 138.961,168.400 139.158 C 168.400 140.616,166.023 142.000,163.520 142.000 C 160.288 142.000,160.000 141.699,160.000 138.320 L 160.000 135.600 161.338 135.600 C 162.659 135.600,164.000 136.573,164.000 137.531 C 164.000 137.789,164.180 138.000,164.400 138.000 C 164.630 138.000,164.798 136.770,164.796 135.100 L 164.791 132.200 163.767 133.500 C 162.967 134.515,162.441 134.800,161.371 134.800 L 160.000 134.800 160.000 132.244 L 160.000 129.688 161.442 129.519 C 163.890 129.233,165.194 129.634,166.629 131.111 L 168.000 132.523 168.000 131.294 C 168.000 128.750,168.136 128.798,161.057 128.816 C 155.282 128.830,154.731 128.888,155.840 129.371 M211.467 129.067 C 211.048 129.485,211.155 132.325,211.600 132.600 C 211.820 132.736,212.000 132.676,212.000 132.466 C 212.000 131.403,214.365 129.600,215.760 129.600 L 217.200 129.600 217.200 135.589 L 217.200 141.577 215.900 141.952 C 214.877 142.248,215.451 142.328,218.600 142.328 C 221.749 142.328,222.323 142.248,221.300 141.952 L 220.000 141.577 220.000 135.589 L 220.000 129.600 221.226 129.600 C 222.880 129.600,223.871 130.189,224.606 131.612 C 225.507 133.354,226.000 133.067,226.000 130.800 L 226.000 128.800 218.867 128.800 C 214.943 128.800,211.613 128.920,211.467 129.067 M245.600 129.522 L 247.000 130.206 247.111 135.718 L 247.223 141.229 245.911 141.799 C 244.619 142.361,244.641 142.369,247.522 142.384 L 250.445 142.400 249.359 141.467 C 248.307 140.561,247.207 130.000,248.165 130.000 C 248.314 130.000,249.704 132.609,251.253 135.798 C 252.802 138.987,254.204 141.679,254.368 141.780 C 254.532 141.882,255.912 139.233,257.433 135.895 L 260.200 129.825 260.312 135.393 C 260.440 141.801,260.423 141.886,258.924 142.111 C 258.306 142.204,259.150 142.310,260.800 142.346 C 262.450 142.381,264.250 142.516,264.800 142.645 C 265.711 142.858,265.690 142.808,264.560 142.082 C 262.163 140.541,262.002 130.516,264.357 129.476 C 265.333 129.046,265.265 129.007,263.312 128.887 C 260.339 128.705,259.925 129.073,257.568 133.993 C 256.406 136.417,255.343 138.400,255.205 138.400 C 255.067 138.400,253.992 136.240,252.817 133.600 L 250.679 128.800 247.439 128.819 L 244.200 128.838 245.600 129.522 M235.005 133.850 C 236.322 136.828,236.333 136.800,233.800 136.800 C 231.238 136.800,231.303 136.962,232.655 133.950 C 233.934 131.098,233.791 131.104,235.005 133.850 M145.047 151.412 C 147.412 152.450,147.371 163.544,145.000 164.049 C 144.124 164.236,144.459 164.318,146.237 164.353 C 147.578 164.379,150.863 164.518,153.537 164.661 L 158.400 164.923 158.400 162.861 C 158.400 160.538,157.914 160.233,157.006 161.988 C 155.489 164.922,149.438 164.931,149.195 162.000 C 148.910 158.572,149.156 157.600,150.311 157.600 C 151.737 157.600,153.200 158.624,153.200 159.623 C 153.200 160.050,153.339 160.400,153.509 160.400 C 153.679 160.400,153.830 159.047,153.845 157.392 L 153.871 154.385 152.836 155.553 C 152.259 156.203,151.223 156.823,150.500 156.951 L 149.200 157.180 149.200 154.390 L 149.200 151.600 151.599 151.600 C 153.793 151.600,154.134 151.723,155.599 153.047 C 157.140 154.439,157.200 154.458,157.195 153.547 C 157.178 150.717,157.381 150.797,150.253 150.833 C 144.438 150.862,143.923 150.919,145.047 151.412 M161.747 151.324 C 163.852 152.665,164.002 152.949,164.257 156.040 C 164.651 160.829,164.191 163.462,162.874 163.944 C 162.005 164.262,162.373 164.337,164.800 164.337 C 167.212 164.337,167.591 164.260,166.734 163.947 C 165.367 163.446,165.293 163.215,164.962 158.418 C 164.613 153.339,164.463 153.306,170.385 159.600 C 173.076 162.460,175.440 164.800,175.639 164.800 C 175.837 164.800,176.000 162.268,176.000 159.174 C 176.000 153.171,176.202 152.350,177.910 151.424 C 178.947 150.861,178.838 150.831,175.676 150.816 C 173.559 150.806,172.442 150.945,172.600 151.200 C 172.736 151.420,173.190 151.600,173.610 151.600 C 174.832 151.600,175.200 152.884,175.200 157.149 L 175.200 161.150 170.525 156.275 C 165.332 150.859,165.330 150.858,162.800 150.852 C 161.257 150.848,161.107 150.915,161.747 151.324 M211.012 151.900 C 210.401 154.323,211.162 154.874,212.776 153.177 C 216.243 149.532,217.721 151.937,217.038 160.119 C 216.727 163.856,216.665 164.000,215.376 164.000 C 214.839 164.000,214.400 164.199,214.400 164.443 C 214.400 164.686,214.685 164.776,215.033 164.643 C 215.381 164.509,217.136 164.379,218.933 164.354 C 220.730 164.328,221.840 164.219,221.400 164.111 C 219.696 163.692,219.600 163.331,219.600 157.351 L 219.600 151.600 220.574 151.600 C 222.206 151.600,223.490 152.291,224.250 153.576 C 225.271 155.306,225.663 155.098,225.522 152.900 L 225.400 151.000 218.319 151.000 C 211.310 151.000,211.236 151.009,211.012 151.900 M226.802 151.257 C 226.801 151.398,227.236 151.623,227.769 151.756 C 228.773 152.008,229.981 154.205,233.074 161.400 C 233.831 163.160,234.583 164.735,234.745 164.900 C 234.908 165.065,236.381 162.288,238.020 158.728 C 240.512 153.316,241.180 152.187,242.100 151.840 C 243.885 151.166,243.387 150.921,240.162 150.888 C 237.073 150.856,236.880 150.959,238.493 151.782 C 239.743 152.419,237.951 159.376,236.035 161.320 C 235.687 161.674,231.991 153.419,231.996 152.300 C 231.999 151.875,232.305 151.600,232.776 151.600 C 233.203 151.600,233.665 151.419,233.801 151.198 C 233.962 150.937,232.777 150.832,230.427 150.898 C 228.434 150.954,226.803 151.115,226.802 151.257 M245.000 151.200 C 245.136 151.420,245.561 151.600,245.944 151.600 C 247.375 151.600,247.600 152.416,247.594 157.580 C 247.587 162.970,247.487 163.372,246.016 163.916 C 245.244 164.201,245.634 164.325,247.986 164.544 C 251.154 164.839,251.931 164.658,250.248 164.018 C 248.693 163.427,248.363 162.045,248.488 156.643 L 248.600 151.800 251.563 157.900 C 253.193 161.255,254.643 164.000,254.786 164.000 C 254.929 164.000,255.992 161.885,257.150 159.300 C 258.307 156.715,259.594 153.970,260.010 153.200 L 260.766 151.800 260.783 157.737 C 260.799 163.426,260.765 163.684,259.966 163.893 C 258.392 164.305,260.085 164.788,263.124 164.794 C 264.972 164.798,265.956 164.653,265.800 164.400 C 265.664 164.180,265.199 164.000,264.766 164.000 C 263.591 164.000,263.200 162.452,263.200 157.800 C 263.200 153.419,263.601 151.600,264.566 151.600 C 264.889 151.600,265.264 151.420,265.400 151.200 C 265.555 150.949,264.669 150.800,263.019 150.800 L 260.390 150.800 258.095 155.597 C 256.833 158.235,255.693 160.395,255.561 160.397 C 255.430 160.399,254.378 158.353,253.224 155.851 L 251.125 151.303 249.062 151.055 C 246.053 150.693,244.716 150.741,245.000 151.200 M116.000 164.000 L 116.000 171.200 112.200 171.200 L 108.400 171.200 108.400 164.000 L 108.400 156.800 112.200 156.800 L 116.000 156.800 116.000 164.000 M291.600 164.000 L 291.600 171.200 287.800 171.200 L 284.000 171.200 284.000 164.000 L 284.000 156.800 287.800 156.800 L 291.600 156.800 291.600 164.000 M179.174 242.100 C 167.844 252.935,139.319 280.172,115.787 302.627 C 92.254 325.081,70.584 345.791,67.630 348.648 L 62.261 353.843 66.534 361.107 C 77.372 379.529,90.925 399.497,102.085 413.487 L 106.008 418.404 107.104 417.247 C 107.707 416.610,110.810 413.602,114.000 410.562 C 120.224 404.630,156.198 369.896,183.066 343.876 C 192.122 335.105,199.625 327.900,199.738 327.865 C 199.852 327.829,209.273 336.810,220.673 347.823 C 232.073 358.836,252.200 378.247,265.400 390.958 C 278.600 403.670,290.441 415.122,291.713 416.409 L 294.027 418.748 297.060 414.937 C 309.307 399.555,337.200 357.457,337.200 354.357 C 337.200 353.970,324.012 341.076,306.903 324.736 C 290.240 308.821,260.225 280.159,240.203 261.042 C 220.181 241.924,202.894 225.409,201.787 224.342 L 199.775 222.400 179.174 242.100 " stroke="none" fill="#040404" fill-rule="evenodd"></path><path id="path3" d="M218.200 108.400 C 219.059 109.280,219.852 110.000,219.962 110.000 C 220.072 110.000,219.459 109.280,218.600 108.400 C 217.741 107.520,216.948 106.800,216.838 106.800 C 216.728 106.800,217.341 107.520,218.200 108.400 M159.331 110.200 C 159.333 111.740,159.405 112.321,159.492 111.491 C 159.579 110.661,159.577 109.401,159.489 108.691 C 159.400 107.981,159.329 108.660,159.331 110.200 M217.983 111.700 C 218.964 112.745,219.819 113.600,219.883 113.600 C 220.184 113.600,219.866 113.241,218.100 111.583 L 216.200 109.800 217.983 111.700 M236.114 113.800 C 236.117 114.900,236.195 115.303,236.287 114.695 C 236.379 114.086,236.377 113.186,236.282 112.695 C 236.187 112.203,236.111 112.700,236.114 113.800 M168.467 118.467 C 168.429 119.529,168.185 120.420,167.900 120.535 C 167.508 120.693,167.511 120.744,167.913 120.768 C 168.625 120.812,168.881 119.952,168.694 118.142 C 168.540 116.651,168.532 116.662,168.467 118.467 M178.200 120.400 L 174.200 120.645 178.300 120.723 C 180.818 120.770,182.400 120.646,182.400 120.400 C 182.400 120.180,182.355 120.035,182.300 120.077 C 182.245 120.120,180.400 120.265,178.200 120.400 M156.900 120.697 C 158.605 120.772,161.395 120.772,163.100 120.697 C 164.805 120.622,163.410 120.561,160.000 120.561 C 156.590 120.561,155.195 120.622,156.900 120.697 M214.711 120.693 C 215.651 120.778,217.091 120.777,217.911 120.691 C 218.730 120.605,217.960 120.536,216.200 120.537 C 214.440 120.539,213.770 120.609,214.711 120.693 M152.070 130.924 C 152.021 132.263,151.860 132.761,151.538 132.562 C 151.241 132.378,151.185 132.453,151.383 132.773 C 151.947 133.685,152.456 132.560,152.296 130.754 L 152.140 129.000 152.070 130.924 M146.155 134.600 C 146.156 137.460,146.220 138.578,146.297 137.083 C 146.374 135.589,146.374 133.249,146.296 131.883 C 146.218 130.518,146.155 131.740,146.155 134.600 M248.150 134.200 C 248.151 136.620,248.216 137.558,248.296 136.285 C 248.376 135.012,248.375 133.032,248.294 131.885 C 248.214 130.738,248.149 131.780,248.150 134.200 M157.342 135.400 C 157.341 137.380,157.408 138.240,157.492 137.312 C 157.576 136.384,157.577 134.764,157.495 133.712 C 157.412 132.660,157.343 133.420,157.342 135.400 M262.942 135.400 C 262.941 137.380,263.008 138.240,263.092 137.312 C 263.176 136.384,263.177 134.764,263.095 133.712 C 263.012 132.660,262.943 133.420,262.942 135.400 M214.754 142.516 C 214.929 142.690,216.766 142.778,218.836 142.713 L 222.600 142.595 218.518 142.397 C 216.273 142.289,214.579 142.342,214.754 142.516 M226.400 142.500 C 226.400 142.665,227.795 142.773,229.500 142.740 C 232.655 142.679,232.282 142.520,228.500 142.314 C 227.345 142.251,226.400 142.335,226.400 142.500 M247.600 142.400 L 244.600 142.656 247.700 142.728 C 249.548 142.771,250.800 142.638,250.800 142.400 C 250.800 142.180,250.755 142.032,250.700 142.072 C 250.645 142.112,249.250 142.259,247.600 142.400 M142.700 142.695 C 143.855 142.776,145.745 142.776,146.900 142.695 C 148.055 142.614,147.110 142.548,144.800 142.548 C 142.490 142.548,141.545 142.614,142.700 142.695 M158.300 142.698 C 160.335 142.771,163.665 142.771,165.700 142.698 C 167.735 142.625,166.070 142.566,162.000 142.566 C 157.930 142.566,156.265 142.625,158.300 142.698 M237.111 142.693 C 238.051 142.778,239.491 142.777,240.311 142.691 C 241.130 142.605,240.360 142.536,238.600 142.537 C 236.840 142.539,236.170 142.609,237.111 142.693 M259.500 142.693 C 260.435 142.777,261.965 142.777,262.900 142.693 C 263.835 142.609,263.070 142.540,261.200 142.540 C 259.330 142.540,258.565 142.609,259.500 142.693 M167.200 152.925 C 167.200 152.994,167.785 153.579,168.500 154.225 L 169.800 155.400 168.625 154.100 C 167.530 152.888,167.200 152.616,167.200 152.925 M216.942 157.400 C 216.941 159.380,217.008 160.240,217.092 159.312 C 217.176 158.384,217.177 156.764,217.095 155.712 C 217.012 154.660,216.943 155.420,216.942 157.400 M167.600 157.000 C 168.795 158.210,169.863 159.200,169.973 159.200 C 170.083 159.200,169.195 158.210,168.000 157.000 C 166.805 155.790,165.737 154.800,165.627 154.800 C 165.517 154.800,166.405 155.790,167.600 157.000 M164.140 158.400 C 164.140 160.270,164.209 161.035,164.293 160.100 C 164.377 159.165,164.377 157.635,164.293 156.700 C 164.209 155.765,164.140 156.530,164.140 158.400 M164.920 157.200 C 164.920 158.410,164.995 158.905,165.087 158.300 C 165.178 157.695,165.178 156.705,165.087 156.100 C 164.995 155.495,164.920 155.990,164.920 157.200 M146.520 158.000 C 146.520 159.210,146.595 159.705,146.687 159.100 C 146.778 158.495,146.778 157.505,146.687 156.900 C 146.595 156.295,146.520 156.790,146.520 158.000 M153.693 157.600 C 153.693 158.370,153.775 158.685,153.876 158.300 C 153.976 157.915,153.976 157.285,153.876 156.900 C 153.775 156.515,153.693 156.830,153.693 157.600 M145.900 164.695 C 147.055 164.776,148.945 164.776,150.100 164.695 C 151.255 164.614,150.310 164.548,148.000 164.548 C 145.690 164.548,144.745 164.614,145.900 164.695 M163.100 164.693 C 164.035 164.777,165.565 164.777,166.500 164.693 C 167.435 164.609,166.670 164.540,164.800 164.540 C 162.930 164.540,162.165 164.609,163.100 164.693 M216.912 164.695 C 217.964 164.777,219.584 164.776,220.512 164.692 C 221.440 164.608,220.580 164.541,218.600 164.542 C 216.620 164.543,215.860 164.612,216.912 164.695 M245.700 164.687 C 246.305 164.778,247.295 164.778,247.900 164.687 C 248.505 164.595,248.010 164.520,246.800 164.520 C 245.590 164.520,245.095 164.595,245.700 164.687 M199.300 183.476 C 199.685 183.576,200.315 183.576,200.700 183.476 C 201.085 183.375,200.770 183.293,200.000 183.293 C 199.230 183.293,198.915 183.375,199.300 183.476 M197.385 224.500 L 195.400 226.600 197.500 224.615 C 198.655 223.523,199.600 222.578,199.600 222.515 C 199.600 222.217,199.229 222.549,197.385 224.500 M201.983 224.500 C 203.641 226.266,204.000 226.584,204.000 226.283 C 204.000 226.219,203.145 225.364,202.100 224.383 L 200.200 222.600 201.983 224.500 M188.400 233.000 C 187.428 233.990,186.723 234.800,186.833 234.800 C 186.943 234.800,187.828 233.990,188.800 233.000 C 189.772 232.010,190.477 231.200,190.367 231.200 C 190.257 231.200,189.372 232.010,188.400 233.000 M211.183 233.300 C 212.164 234.345,213.019 235.200,213.083 235.200 C 213.384 235.200,213.066 234.841,211.300 233.183 L 209.400 231.400 211.183 233.300 M179.200 241.800 C 178.228 242.790,177.523 243.600,177.633 243.600 C 177.743 243.600,178.628 242.790,179.600 241.800 C 180.572 240.810,181.277 240.000,181.167 240.000 C 181.057 240.000,180.172 240.810,179.200 241.800 M220.383 242.100 C 221.364 243.145,222.219 244.000,222.283 244.000 C 222.584 244.000,222.266 243.641,220.500 241.983 L 218.600 240.200 220.383 242.100 M170.000 250.600 C 169.028 251.590,168.323 252.400,168.433 252.400 C 168.543 252.400,169.428 251.590,170.400 250.600 C 171.372 249.610,172.077 248.800,171.967 248.800 C 171.857 248.800,170.972 249.610,170.000 250.600 M229.400 250.800 C 230.259 251.680,231.052 252.400,231.162 252.400 C 231.272 252.400,230.659 251.680,229.800 250.800 C 228.941 249.920,228.148 249.200,228.038 249.200 C 227.928 249.200,228.541 249.920,229.400 250.800 M160.585 259.700 L 158.600 261.800 160.700 259.815 C 161.855 258.723,162.800 257.778,162.800 257.715 C 162.800 257.417,162.429 257.749,160.585 259.700 M238.383 259.300 C 239.364 260.345,240.219 261.200,240.283 261.200 C 240.584 261.200,240.266 260.841,238.500 259.183 L 236.600 257.400 238.383 259.300 M152.000 267.800 C 151.028 268.790,150.323 269.600,150.433 269.600 C 150.543 269.600,151.428 268.790,152.400 267.800 C 153.372 266.810,154.077 266.000,153.967 266.000 C 153.857 266.000,152.972 266.810,152.000 267.800 M247.583 268.100 C 248.564 269.145,249.419 270.000,249.483 270.000 C 249.784 270.000,249.466 269.641,247.700 267.983 L 245.800 266.200 247.583 268.100 M143.600 275.800 C 142.628 276.790,141.923 277.600,142.033 277.600 C 142.143 277.600,143.028 276.790,144.000 275.800 C 144.972 274.810,145.677 274.000,145.567 274.000 C 145.457 274.000,144.572 274.810,143.600 275.800 M256.600 276.800 C 257.459 277.680,258.252 278.400,258.362 278.400 C 258.472 278.400,257.859 277.680,257.000 276.800 C 256.141 275.920,255.348 275.200,255.238 275.200 C 255.128 275.200,255.741 275.920,256.600 276.800 M134.800 284.200 C 133.828 285.190,133.123 286.000,133.233 286.000 C 133.343 286.000,134.228 285.190,135.200 284.200 C 136.172 283.210,136.877 282.400,136.767 282.400 C 136.657 282.400,135.772 283.210,134.800 284.200 M265.583 285.300 C 266.564 286.345,267.419 287.200,267.483 287.200 C 267.784 287.200,267.466 286.841,265.700 285.183 L 263.800 283.400 265.583 285.300 M126.000 292.600 C 125.028 293.590,124.323 294.400,124.433 294.400 C 124.543 294.400,125.428 293.590,126.400 292.600 C 127.372 291.610,128.077 290.800,127.967 290.800 C 127.857 290.800,126.972 291.610,126.000 292.600 M274.383 293.700 C 275.364 294.745,276.219 295.600,276.283 295.600 C 276.584 295.600,276.266 295.241,274.500 293.583 L 272.600 291.800 274.383 293.700 M117.600 300.600 C 116.628 301.590,115.923 302.400,116.033 302.400 C 116.143 302.400,117.028 301.590,118.000 300.600 C 118.972 299.610,119.677 298.800,119.567 298.800 C 119.457 298.800,118.572 299.610,117.600 300.600 M283.183 302.100 C 284.841 303.866,285.200 304.184,285.200 303.883 C 285.200 303.819,284.345 302.964,283.300 301.983 L 281.400 300.200 283.183 302.100 M108.800 309.000 C 107.828 309.990,107.123 310.800,107.233 310.800 C 107.343 310.800,108.228 309.990,109.200 309.000 C 110.172 308.010,110.877 307.200,110.767 307.200 C 110.657 307.200,109.772 308.010,108.800 309.000 M291.983 310.500 C 292.964 311.545,293.819 312.400,293.883 312.400 C 294.184 312.400,293.866 312.041,292.100 310.383 L 290.200 308.600 291.983 310.500 M100.000 317.400 C 99.028 318.390,98.323 319.200,98.433 319.200 C 98.543 319.200,99.428 318.390,100.400 317.400 C 101.372 316.410,102.077 315.600,101.967 315.600 C 101.857 315.600,100.972 316.410,100.000 317.400 M301.000 319.200 C 301.859 320.080,302.652 320.800,302.762 320.800 C 302.872 320.800,302.259 320.080,301.400 319.200 C 300.541 318.320,299.748 317.600,299.638 317.600 C 299.528 317.600,300.141 318.320,301.000 319.200 M91.200 325.800 C 90.228 326.790,89.523 327.600,89.633 327.600 C 89.743 327.600,90.628 326.790,91.600 325.800 C 92.572 324.810,93.277 324.000,93.167 324.000 C 93.057 324.000,92.172 324.810,91.200 325.800 M309.800 327.600 C 310.883 328.700,311.860 329.600,311.970 329.600 C 312.080 329.600,311.283 328.700,310.200 327.600 C 309.117 326.500,308.140 325.600,308.030 325.600 C 307.920 325.600,308.717 326.500,309.800 327.600 M198.770 328.700 L 197.800 329.800 198.823 328.903 C 199.651 328.176,199.952 328.100,200.404 328.503 C 200.877 328.925,200.881 328.894,200.432 328.300 C 199.775 327.432,199.918 327.397,198.770 328.700 M82.400 334.200 C 81.428 335.190,80.723 336.000,80.833 336.000 C 80.943 336.000,81.828 335.190,82.800 334.200 C 83.772 333.210,84.477 332.400,84.367 332.400 C 84.257 332.400,83.372 333.210,82.400 334.200 M318.600 336.000 C 319.683 337.100,320.660 338.000,320.770 338.000 C 320.880 338.000,320.083 337.100,319.000 336.000 C 317.917 334.900,316.940 334.000,316.830 334.000 C 316.720 334.000,317.517 334.900,318.600 336.000 M209.600 337.400 C 211.017 338.830,212.267 340.000,212.377 340.000 C 212.487 340.000,211.417 338.830,210.000 337.400 C 208.583 335.970,207.333 334.800,207.223 334.800 C 207.113 334.800,208.183 335.970,209.600 337.400 M188.189 338.900 L 185.400 341.800 188.300 339.011 C 190.994 336.420,191.383 336.000,191.089 336.000 C 191.028 336.000,189.723 337.305,188.189 338.900 M72.987 343.300 L 70.600 345.800 73.100 343.413 C 75.422 341.195,75.783 340.800,75.487 340.800 C 75.426 340.800,74.301 341.925,72.987 343.300 M327.400 344.400 C 328.483 345.500,329.460 346.400,329.570 346.400 C 329.680 346.400,328.883 345.500,327.800 344.400 C 326.717 343.300,325.740 342.400,325.630 342.400 C 325.520 342.400,326.317 343.300,327.400 344.400 M221.800 349.200 C 223.328 350.740,224.669 352.000,224.779 352.000 C 224.889 352.000,223.728 350.740,222.200 349.200 C 220.672 347.660,219.331 346.400,219.221 346.400 C 219.111 346.400,220.272 347.660,221.800 349.200 M175.389 351.300 L 172.600 354.200 175.500 351.411 C 178.194 348.820,178.583 348.400,178.289 348.400 C 178.228 348.400,176.923 349.705,175.389 351.300 M334.400 350.925 C 334.400 350.994,334.985 351.579,335.700 352.225 L 337.000 353.400 335.825 352.100 C 334.730 350.888,334.400 350.616,334.400 350.925 M230.800 357.710 C 230.800 357.771,232.195 359.166,233.900 360.810 L 237.000 363.800 234.010 360.700 C 231.233 357.821,230.800 357.417,230.800 357.710 M162.800 363.400 C 161.161 365.050,159.910 366.400,160.020 366.400 C 160.130 366.400,161.561 365.050,163.200 363.400 C 164.839 361.750,166.090 360.400,165.980 360.400 C 165.870 360.400,164.439 361.750,162.800 363.400 M245.400 372.000 C 246.928 373.540,248.269 374.800,248.379 374.800 C 248.489 374.800,247.328 373.540,245.800 372.000 C 244.272 370.460,242.931 369.200,242.821 369.200 C 242.711 369.200,243.872 370.460,245.400 372.000 M150.989 374.900 L 148.200 377.800 151.100 375.011 C 153.794 372.420,154.183 372.000,153.889 372.000 C 153.828 372.000,152.523 373.305,150.989 374.900 M256.800 383.000 C 258.217 384.430,259.467 385.600,259.577 385.600 C 259.687 385.600,258.617 384.430,257.200 383.000 C 255.783 381.570,254.533 380.400,254.423 380.400 C 254.313 380.400,255.383 381.570,256.800 383.000 M139.789 385.700 L 137.000 388.600 139.900 385.811 C 142.594 383.220,142.983 382.800,142.689 382.800 C 142.628 382.800,141.323 384.105,139.789 385.700 M268.000 393.800 C 269.417 395.230,270.667 396.400,270.777 396.400 C 270.887 396.400,269.817 395.230,268.400 393.800 C 266.983 392.370,265.733 391.200,265.623 391.200 C 265.513 391.200,266.583 392.370,268.000 393.800 M128.189 396.900 L 125.400 399.800 128.300 397.011 C 130.994 394.420,131.383 394.000,131.089 394.000 C 131.028 394.000,129.723 395.305,128.189 396.900 M279.200 404.600 C 280.617 406.030,281.867 407.200,281.977 407.200 C 282.087 407.200,281.017 406.030,279.600 404.600 C 278.183 403.170,276.933 402.000,276.823 402.000 C 276.713 402.000,277.783 403.170,279.200 404.600 M115.389 409.300 L 112.600 412.200 115.500 409.411 C 118.194 406.820,118.583 406.400,118.289 406.400 C 118.228 406.400,116.923 407.705,115.389 409.300 M290.400 415.400 C 291.817 416.830,293.067 418.000,293.177 418.000 C 293.287 418.000,292.217 416.830,290.800 415.400 C 289.383 413.970,288.133 412.800,288.023 412.800 C 287.913 412.800,288.983 413.970,290.400 415.400 M107.578 416.700 L 106.200 418.200 107.700 416.822 C 109.096 415.538,109.384 415.200,109.078 415.200 C 109.012 415.200,108.337 415.875,107.578 416.700 " stroke="none" fill="#4a2e18" fill-rule="evenodd"></path><path id="path4" d="M126.193 134.000 C 126.193 157.430,126.241 167.015,126.300 155.300 C 126.359 143.585,126.359 124.415,126.300 112.700 C 126.241 100.985,126.193 110.570,126.193 134.000 M273.771 100.400 C 273.771 105.350,273.828 107.375,273.899 104.900 C 273.969 102.425,273.969 98.375,273.899 95.900 C 273.828 93.425,273.771 95.450,273.771 100.400 M201.393 137.400 C 201.393 160.500,201.441 169.891,201.500 158.269 C 201.559 146.648,201.559 127.748,201.500 116.269 C 201.441 104.791,201.393 114.300,201.393 137.400 M170.914 108.600 C 170.917 109.700,170.995 110.103,171.087 109.495 C 171.179 108.886,171.177 107.986,171.082 107.495 C 170.987 107.003,170.911 107.500,170.914 108.600 M185.724 109.000 C 185.726 110.320,185.801 110.812,185.890 110.093 C 185.979 109.374,185.977 108.294,185.886 107.693 C 185.795 107.092,185.722 107.680,185.724 109.000 M176.920 109.600 C 176.920 110.810,176.995 111.305,177.087 110.700 C 177.178 110.095,177.178 109.105,177.087 108.500 C 176.995 107.895,176.920 108.390,176.920 109.600 M179.755 112.600 C 179.756 115.460,179.820 116.578,179.897 115.083 C 179.974 113.589,179.974 111.249,179.896 109.883 C 179.818 108.518,179.755 109.740,179.755 112.600 M156.509 110.000 C 156.509 110.990,156.587 111.395,156.682 110.900 C 156.778 110.405,156.778 109.595,156.682 109.100 C 156.587 108.605,156.509 109.010,156.509 110.000 M273.701 111.000 C 273.705 111.880,273.787 112.193,273.883 111.695 C 273.979 111.198,273.975 110.478,273.875 110.095 C 273.775 109.713,273.696 110.120,273.701 111.000 M220.000 110.125 C 220.000 110.194,220.585 110.779,221.300 111.425 L 222.600 112.600 221.425 111.300 C 220.330 110.088,220.000 109.816,220.000 110.125 M164.093 111.600 C 164.093 112.370,164.175 112.685,164.276 112.300 C 164.376 111.915,164.376 111.285,164.276 110.900 C 164.175 110.515,164.093 110.830,164.093 111.600 M226.493 111.600 C 226.493 112.370,226.575 112.685,226.676 112.300 C 226.776 111.915,226.776 111.285,226.676 110.900 C 226.575 110.515,226.493 110.830,226.493 111.600 M216.534 113.600 C 216.534 115.250,216.605 115.925,216.691 115.100 C 216.778 114.275,216.778 112.925,216.691 112.100 C 216.605 111.275,216.534 111.950,216.534 113.600 M226.470 114.749 C 226.406 116.344,226.339 116.452,225.700 115.971 C 225.036 115.471,225.036 115.483,225.690 116.198 C 226.617 117.210,226.881 116.827,226.695 114.742 L 226.540 113.000 226.470 114.749 M176.928 116.400 C 176.928 117.830,177.001 118.415,177.089 117.700 C 177.178 116.985,177.178 115.815,177.089 115.100 C 177.001 114.385,176.928 114.970,176.928 116.400 M159.314 116.600 C 159.317 117.700,159.395 118.103,159.487 117.495 C 159.579 116.886,159.577 115.986,159.482 115.495 C 159.387 115.003,159.311 115.500,159.314 116.600 M112.100 115.893 L 115.600 116.030 115.600 122.799 L 115.600 129.569 112.100 129.711 L 108.600 129.853 112.200 129.826 L 115.800 129.800 115.800 122.800 L 115.800 115.800 112.200 115.778 L 108.600 115.755 112.100 115.893 M285.500 115.893 C 286.435 115.977,287.965 115.977,288.900 115.893 C 289.835 115.809,289.070 115.740,287.200 115.740 C 285.330 115.740,284.565 115.809,285.500 115.893 M224.400 118.525 C 224.400 118.594,224.985 119.179,225.700 119.825 L 227.000 121.000 225.825 119.700 C 224.730 118.488,224.400 118.216,224.400 118.525 M284.064 128.500 L 284.000 130.000 287.700 129.918 L 291.400 129.835 287.924 129.703 L 284.448 129.570 284.288 128.285 C 284.133 127.039,284.126 127.045,284.064 128.500 M234.200 136.400 L 232.600 136.686 234.300 136.743 C 235.235 136.774,236.000 136.620,236.000 136.400 C 236.000 136.180,235.955 136.026,235.900 136.057 C 235.845 136.088,235.080 136.242,234.200 136.400 M214.912 151.095 C 215.964 151.177,217.584 151.176,218.512 151.092 C 219.440 151.008,218.580 150.941,216.600 150.942 C 214.620 150.943,213.860 151.012,214.912 151.095 M249.300 151.076 C 249.685 151.176,250.315 151.176,250.700 151.076 C 251.085 150.975,250.770 150.893,250.000 150.893 C 249.230 150.893,248.915 150.975,249.300 151.076 M248.546 156.200 C 248.547 158.400,248.614 159.249,248.695 158.087 C 248.776 156.924,248.776 155.124,248.693 154.087 C 248.611 153.049,248.545 154.000,248.546 156.200 M176.128 156.000 C 176.128 157.430,176.201 158.015,176.289 157.300 C 176.378 156.585,176.378 155.415,176.289 154.700 C 176.201 153.985,176.128 154.570,176.128 156.000 M263.348 157.600 C 263.348 159.910,263.414 160.855,263.495 159.700 C 263.576 158.545,263.576 156.655,263.495 155.500 C 263.414 154.345,263.348 155.290,263.348 157.600 M110.313 157.095 C 111.476 157.176,113.276 157.176,114.313 157.093 C 115.351 157.011,114.400 156.945,112.200 156.946 C 110.000 156.947,109.151 157.014,110.313 157.095 M285.913 157.095 C 287.076 157.176,288.876 157.176,289.913 157.093 C 290.951 157.011,290.000 156.945,287.800 156.946 C 285.600 156.947,284.751 157.014,285.913 157.095 M115.689 164.284 L 115.600 170.769 112.100 170.902 L 108.600 171.035 112.113 171.118 C 116.362 171.217,116.054 171.797,115.900 163.983 L 115.778 157.800 115.689 164.284 M176.124 162.600 C 176.126 163.920,176.201 164.412,176.290 163.693 C 176.379 162.974,176.377 161.894,176.286 161.293 C 176.195 160.692,176.122 161.280,176.124 162.600 M286.112 171.095 C 287.164 171.177,288.784 171.176,289.712 171.092 C 290.640 171.008,289.780 170.941,287.800 170.942 C 285.820 170.943,285.060 171.012,286.112 171.095 M180.900 177.876 C 181.285 177.976,181.915 177.976,182.300 177.876 C 182.685 177.775,182.370 177.693,181.600 177.693 C 180.830 177.693,180.515 177.775,180.900 177.876 M217.700 177.876 C 218.085 177.976,218.715 177.976,219.100 177.876 C 219.485 177.775,219.170 177.693,218.400 177.693 C 217.630 177.693,217.315 177.775,217.700 177.876 M281.320 185.200 C 281.320 186.410,281.395 186.905,281.487 186.300 C 281.578 185.695,281.578 184.705,281.487 184.100 C 281.395 183.495,281.320 183.990,281.320 185.200 M209.724 189.000 C 209.726 190.320,209.801 190.812,209.890 190.093 C 209.979 189.374,209.977 188.294,209.886 187.693 C 209.795 187.092,209.722 187.680,209.724 189.000 M154.105 189.487 C 154.714 189.579,155.614 189.577,156.105 189.482 C 156.597 189.387,156.100 189.311,155.000 189.314 C 153.900 189.317,153.497 189.395,154.105 189.487 M243.905 189.483 C 244.402 189.579,245.122 189.575,245.505 189.475 C 245.887 189.375,245.480 189.296,244.600 189.301 C 243.720 189.305,243.407 189.387,243.905 189.483 M258.100 189.476 C 258.485 189.576,259.115 189.576,259.500 189.476 C 259.885 189.375,259.570 189.293,258.800 189.293 C 258.030 189.293,257.715 189.375,258.100 189.476 " stroke="none" fill="#7c7c7c" fill-rule="evenodd"></path></g></svg>