<?xml version="1.0" encoding="UTF-8"?>
<!DOCTYPE svg PUBLIC "-//W3C//DTD SVG 1.1//EN" "http://www.w3.org/Graphics/SVG/1.1/DTD/svg11.dtd">
<svg xmlns="http://www.w3.org/2000/svg" version="1.1" width="2400px" height="2400px" style="shape-rendering:geometricPrecision; text-rendering:geometricPrecision; image-rendering:optimizeQuality; fill-rule:evenodd; clip-rule:evenodd" xmlns:xlink="http://www.w3.org/1999/xlink">
<g><path style="opacity:0.987" fill="#dfa43b" d="M 104.5,679.5 C 235.333,678.334 366.333,678.167 497.5,679C 555.127,782.419 612.627,885.919 670,989.5C 725.706,885.92 781.54,782.42 837.5,679C 1323.17,678.333 1808.83,678.333 2294.5,679C 2233.83,790 2173.17,901 2112.5,1012C 1994.17,1012.17 1875.83,1012.67 1757.5,1013.5C 1635.83,1240.17 1514.17,1466.83 1392.5,1693.5C 1260.83,1694.83 1129.17,1694.83 997.5,1693.5C 1116.78,1466.43 1236.45,1239.6 1356.5,1013C 1255.17,1012.33 1153.83,1012.33 1052.5,1013C 926.794,1248.91 800.961,1484.75 675,1720.5C 484.805,1373.44 294.639,1026.44 104.5,679.5 Z"/></g>
<g><path style="opacity:1" fill="#f1dab0" d="M 485.5,699.5 C 369.999,699.167 254.665,699.5 139.5,700.5C 138.957,700.44 138.624,700.107 138.5,699.5C 254.333,698.168 369.999,698.168 485.5,699.5 Z"/></g>
<g><path style="opacity:1" fill="#f1dab0" d="M 849.5,699.5 C 1084.5,698.833 1319.67,698.5 1555,698.5C 1790.17,698.833 2025.33,699.167 2260.5,699.5C 2260.38,700.107 2260.04,700.44 2259.5,700.5C 1789.67,699.5 1319.67,699.167 849.5,699.5 Z"/></g>
<g><path style="opacity:1" fill="#fefefe" d="M 485.5,699.5 C 546.886,809.933 608.552,920.266 670.5,1030.5C 730.433,920.299 790.1,809.966 849.5,699.5C 1319.67,699.167 1789.67,699.5 2259.5,700.5C 2206.64,797.72 2153.64,894.886 2100.5,992C 1981.93,992.168 1863.43,992.668 1745,993.5C 1623.39,1220.39 1501.56,1447.05 1379.5,1673.5C 1263.33,1673.83 1147.33,1673.5 1031.5,1672.5C 1150.57,1446.04 1269.9,1219.7 1389.5,993.5C 1273.17,992.333 1156.83,992.167 1040.5,993C 918.285,1221.26 796.451,1449.76 675,1678.5C 496.234,1352.63 317.734,1026.63 139.5,700.5C 254.665,699.5 369.999,699.167 485.5,699.5 Z"/></g>
<g><path style="opacity:1" fill="#c39eab" d="M 462.5,738.5 C 376.665,738.167 290.998,738.501 205.5,739.5C 204.957,739.44 204.624,739.107 204.5,738.5C 290.666,737.168 376.666,737.168 462.5,738.5 Z"/></g>
<g><path style="opacity:1" fill="#c39eab" d="M 872.5,738.5 C 1092.67,737.833 1313,737.5 1533.5,737.5C 1753.83,737.833 1974.17,738.167 2194.5,738.5C 2194.38,739.107 2194.04,739.44 2193.5,739.5C 1753.33,738.5 1313,738.167 872.5,738.5 Z"/></g>
<g><path style="opacity:1" fill="#7e2f4b" d="M 462.5,738.5 C 532.136,863 601.636,987.667 671,1112.5C 738.446,987.939 805.613,863.272 872.5,738.5C 1313,738.167 1753.33,738.5 2193.5,739.5C 2155.11,810.606 2116.45,881.606 2077.5,952.5C 1959.17,953.333 1840.83,953.833 1722.5,954C 1600.11,1180.62 1478.11,1407.45 1356.5,1634.5C 1269.67,1634.83 1183,1634.5 1096.5,1633.5C 1215.55,1407.06 1334.89,1180.73 1454.5,954.5C 1308.5,953.333 1162.5,953.167 1016.5,954C 902.461,1167.91 788.294,1381.75 674,1595.5C 517.567,1310.3 361.4,1024.97 205.5,739.5C 290.998,738.501 376.665,738.167 462.5,738.5 Z"/></g>
<g><path style="opacity:1" fill="#a0667b" d="M 1096.5,1633.5 C 1183,1634.5 1269.67,1634.83 1356.5,1634.5C 1269.67,1635.83 1182.67,1635.83 1095.5,1634.5C 1095.62,1633.89 1095.96,1633.56 1096.5,1633.5 Z"/></g>
<g><path style="opacity:1" fill="#fcf8f1" d="M 1031.5,1672.5 C 1147.33,1673.5 1263.33,1673.83 1379.5,1673.5C 1263.33,1674.83 1147,1674.83 1030.5,1673.5C 1030.62,1672.89 1030.96,1672.56 1031.5,1672.5 Z"/></g>
</svg>
