<?xml version="1.0" encoding="UTF-8"?>
<!DOCTYPE svg PUBLIC "-//W3C//DTD SVG 1.1//EN" "http://www.w3.org/Graphics/SVG/1.1/DTD/svg11.dtd">
<svg xmlns="http://www.w3.org/2000/svg" version="1.1" width="1296px" height="1296px" style="shape-rendering:geometricPrecision; text-rendering:geometricPrecision; image-rendering:optimizeQuality; fill-rule:evenodd; clip-rule:evenodd" xmlns:xlink="http://www.w3.org/1999/xlink">
<g><path style="opacity:0.993" fill="#a9985c" d="M 466.5,89.5 C 522.655,89.4964 575.988,101.663 626.5,126C 633.247,129.455 639.747,133.289 646,137.5C 646.5,123.171 646.667,108.837 646.5,94.5C 676.5,94.5 706.5,94.5 736.5,94.5C 736.5,146.167 736.5,197.833 736.5,249.5C 706.831,249.667 677.165,249.5 647.5,249C 583.225,194.016 510.225,177.683 428.5,200C 377.281,217.885 342.781,252.385 325,303.5C 308.778,371.211 330.945,422.045 391.5,456C 452.605,487.517 515.605,492.184 580.5,470C 616.068,455.765 641.901,431.265 658,396.5C 660.789,389.341 662.956,382.008 664.5,374.5C 653.48,374.168 642.48,374.501 631.5,375.5C 628.403,389.417 625.736,403.417 623.5,417.5C 597.5,417.5 571.5,417.5 545.5,417.5C 545.5,369.5 545.5,321.5 545.5,273.5C 730.167,273.5 914.833,273.5 1099.5,273.5C 1099.5,321.5 1099.5,369.5 1099.5,417.5C 1073.5,417.5 1047.5,417.5 1021.5,417.5C 1019.15,403.246 1016.48,389.079 1013.5,375C 976.835,374.5 940.168,374.333 903.5,374.5C 903.5,440.5 903.5,506.5 903.5,572.5C 919.833,572.5 936.167,572.5 952.5,572.5C 952.5,602.5 952.5,632.5 952.5,662.5C 878.833,662.5 805.167,662.5 731.5,662.5C 731.5,632.5 731.5,602.5 731.5,572.5C 747.833,572.5 764.167,572.5 780.5,572.5C 780.5,506.5 780.5,440.5 780.5,374.5C 769.833,374.5 759.167,374.5 748.5,374.5C 748.5,431.5 748.5,488.5 748.5,545.5C 716.833,545.5 685.167,545.5 653.5,545.5C 653.829,539.463 653.496,533.463 652.5,527.5C 616.415,545.524 578.415,557.69 538.5,564C 505.759,570.041 472.759,572.708 439.5,572C 361.542,568.152 294.709,539.319 239,485.5C 177.894,418.211 164.228,342.211 198,257.5C 229.784,193.383 278.284,146.55 343.5,117C 382.831,99.7472 423.831,90.5805 466.5,89.5 Z"/></g>
<g><path style="opacity:0.766" fill="#a9985c" d="M 984.5,628.5 C 999.284,627.783 1006.12,634.783 1005,649.5C 1001.75,659.382 994.915,663.548 984.5,662C 974.212,657.927 970.379,650.427 973,639.5C 975.437,634.226 979.271,630.56 984.5,628.5 Z M 996.5,655.5 C 987.841,660.926 981.341,658.926 977,649.5C 975.853,637.313 981.353,631.813 993.5,633C 1000.63,637.401 1002.8,643.568 1000,651.5C 999.34,653.324 998.173,654.657 996.5,655.5 Z M 986.5,639.5 C 988.948,639.01 990.615,639.843 991.5,642C 990.381,643.876 988.714,644.709 986.5,644.5C 986.5,642.833 986.5,641.167 986.5,639.5 Z"/></g>
<g><path style="opacity:0.763" fill="#a9985c" d="M 996.5,655.5 C 992.241,655.898 990.408,653.898 991,649.5C 989.89,647.963 988.39,647.297 986.5,647.5C 986.5,650.167 986.5,652.833 986.5,655.5C 985.167,655.5 983.833,655.5 982.5,655.5C 982.334,649.158 982.5,642.825 983,636.5C 986.951,635.055 990.784,635.388 994.5,637.5C 995.983,640.612 995.65,643.445 993.5,646C 995.063,648.974 996.063,652.141 996.5,655.5 Z M 986.5,639.5 C 986.5,641.167 986.5,642.833 986.5,644.5C 988.714,644.709 990.381,643.876 991.5,642C 990.615,639.843 988.948,639.01 986.5,639.5 Z"/></g>
<g><path style="opacity:0.969" fill="#00294e" d="M 248.5,756.5 C 274.105,754.095 297.771,759.595 319.5,773C 321.378,774.543 322.878,776.376 324,778.5C 324.667,790.833 324.667,803.167 324,815.5C 318.914,816.806 313.58,817.473 308,817.5C 302.833,817.333 297.667,817.167 292.5,817C 291.946,809.808 291.112,802.642 290,795.5C 270.694,784.689 251.527,784.855 232.5,796C 221.971,806.565 216.804,819.398 217,834.5C 216.333,851.5 216.333,868.5 217,885.5C 217.993,913.661 232.493,927.661 260.5,927.5C 268.711,927.742 276.711,926.576 284.5,924C 287.759,922.789 290.592,920.956 293,918.5C 293.5,904.837 293.667,891.171 293.5,877.5C 282.162,877.667 270.828,877.5 259.5,877C 259,876.5 258.5,876 258,875.5C 257.195,866.452 257.361,857.452 258.5,848.5C 269.833,848.167 281.167,847.833 292.5,847.5C 304.225,847.511 315.725,848.178 327,849.5C 327.667,878.167 327.667,906.833 327,935.5C 326.654,937.848 325.487,939.681 323.5,941C 294.61,958.462 263.61,963.462 230.5,956C 200.445,947.094 184.278,926.928 182,895.5C 180.015,871.832 180.015,848.166 182,824.5C 185.885,783.783 208.051,761.117 248.5,756.5 Z"/></g>
<g><path style="opacity:0.953" fill="#00294e" d="M 919.5,759.5 C 929.839,759.334 940.172,759.5 950.5,760C 951.652,770.09 951.819,780.256 951,790.5C 940.577,791.652 930.077,791.819 919.5,791C 918.178,780.5 918.178,770 919.5,759.5 Z"/></g>
<g><path style="opacity:0.966" fill="#00294e" d="M 402.5,813.5 C 419.22,811.611 434.887,814.777 449.5,823C 461.642,831.445 469.142,842.945 472,857.5C 474.244,870.079 475.244,882.746 475,895.5C 474.25,896.126 473.416,896.626 472.5,897C 443.5,897.333 414.5,897.667 385.5,898C 386.578,917.91 397.244,928.41 417.5,929.5C 426.084,929.472 434.084,927.305 441.5,923C 445.024,919.975 448.691,917.142 452.5,914.5C 459.092,919.714 465.592,925.047 472,930.5C 472.667,932.167 472.667,933.833 472,935.5C 462.378,946.897 450.212,954.064 435.5,957C 415.603,961.638 396.603,959.304 378.5,950C 365.193,940.996 357.026,928.496 354,912.5C 349.412,889 351.079,866 359,843.5C 368.637,826.433 383.137,816.433 402.5,813.5 Z M 408.5,841.5 C 429.736,840.407 440.736,850.407 441.5,871.5C 422.5,871.5 403.5,871.5 384.5,871.5C 384.911,855.117 392.911,845.117 408.5,841.5 Z"/></g>
<g><path style="opacity:0.972" fill="#00294e" d="M 544.5,813.5 C 563.494,811.159 580.827,815.326 596.5,826C 607.319,835.801 613.819,847.968 616,862.5C 617.551,876.125 617.884,889.792 617,903.5C 612.385,939.11 592.052,957.776 556,959.5C 516.707,957.541 496.041,936.874 494,897.5C 492.509,880.07 494.509,863.07 500,846.5C 509.197,827.826 524.03,816.826 544.5,813.5 Z M 547.5,843.5 C 567.821,840.008 579.654,848.342 583,868.5C 585.276,883.302 584.609,897.969 581,912.5C 574.95,925.444 564.784,930.944 550.5,929C 538.253,926.419 531.087,918.919 529,906.5C 526.772,891.764 527.105,877.097 530,862.5C 532.251,852.753 538.084,846.42 547.5,843.5 Z"/></g>
<g><path style="opacity:0.974" fill="#00294e" d="M 790.5,813.5 C 804.411,811.716 817.411,814.216 829.5,821C 832.04,823.205 834.207,825.705 836,828.5C 836.203,824.579 836.703,820.745 837.5,817C 853.741,816.176 869.907,816.342 886,817.5C 886.667,826.5 886.667,835.5 886,844.5C 880.667,845.167 875.333,845.833 870,846.5C 869.667,883.833 869.333,921.167 869,958.5C 865.294,988.54 848.46,1005.71 818.5,1010C 799.33,1012.83 781.33,1009.5 764.5,1000C 759.821,996.654 755.821,992.654 752.5,988C 758.455,981.043 764.789,974.376 771.5,968C 775.817,967.492 779.15,969.158 781.5,973C 796.182,983.068 811.182,983.735 826.5,975C 830.993,971.166 833.826,966.333 835,960.5C 836.478,952.889 836.812,945.222 836,937.5C 830.736,944.89 823.569,949.39 814.5,951C 774.191,956.039 752.357,938.205 749,897.5C 746.968,878.371 748.968,859.704 755,841.5C 761.955,825.795 773.789,816.462 790.5,813.5 Z M 801.5,843.5 C 820.406,840.927 831.572,848.927 835,867.5C 837.592,881.442 836.592,895.108 832,908.5C 825.674,920.41 815.84,924.91 802.5,922C 794.531,920.034 789.031,915.201 786,907.5C 779.644,888.698 780.644,870.364 789,852.5C 792.299,848.118 796.466,845.118 801.5,843.5 Z"/></g>
<g><path style="opacity:0.972" fill="#00294e" d="M 1027.5,813.5 C 1042.35,812.72 1057.01,813.886 1071.5,817C 1085.07,820.907 1093.57,829.741 1097,843.5C 1098,848.453 1098.66,853.453 1099,858.5C 1099.5,881.164 1099.67,903.831 1099.5,926.5C 1104.51,926.334 1109.51,926.501 1114.5,927C 1115.17,928 1115.83,929 1116.5,930C 1115.52,938.415 1115.18,946.915 1115.5,955.5C 1099.83,955.5 1084.17,955.5 1068.5,955.5C 1068.67,951.818 1068.5,948.152 1068,944.5C 1057.7,955.162 1045.03,960.162 1030,959.5C 995.182,958.02 979.849,940.02 984,905.5C 987.798,888.369 998.298,877.869 1015.5,874C 1019.11,873.055 1022.78,872.388 1026.5,872C 1040.16,871.5 1053.83,871.333 1067.5,871.5C 1068.18,863.848 1067.02,856.515 1064,849.5C 1060.6,845.051 1056.1,842.551 1050.5,842C 1041.78,841.161 1033.11,841.495 1024.5,843C 1024.15,848.877 1023.15,854.543 1021.5,860C 1012.12,860.806 1002.79,860.64 993.5,859.5C 992.334,847.848 992.167,836.181 993,824.5C 1003.84,818.498 1015.34,814.832 1027.5,813.5 Z M 1035.5,896.5 C 1046.17,896.5 1056.83,896.5 1067.5,896.5C 1071.65,919.943 1061.98,931.61 1038.5,931.5C 1025.04,933.494 1017.04,927.994 1014.5,915C 1015.36,907.256 1019.36,901.922 1026.5,899C 1029.68,898.34 1032.68,897.507 1035.5,896.5 Z"/></g>
<g><path style="opacity:0.97" fill="#00294e" d="M 712.5,814.5 C 718.176,814.334 723.843,814.501 729.5,815C 732.334,815.045 734.834,815.879 737,817.5C 737.5,827.494 737.666,837.494 737.5,847.5C 728.219,846.009 718.886,845.509 709.5,846C 696.466,849.036 688.966,857.202 687,870.5C 686.5,889.164 686.333,907.83 686.5,926.5C 691.844,926.334 697.177,926.501 702.5,927C 703,927.5 703.5,928 704,928.5C 704.816,937.412 704.65,946.245 703.5,955C 681.169,955.5 658.836,955.667 636.5,955.5C 636.334,946.161 636.5,936.827 637,927.5C 642.072,926.529 647.238,926.195 652.5,926.5C 652.5,899.5 652.5,872.5 652.5,845.5C 647.167,845.5 641.833,845.5 636.5,845.5C 636.5,835.833 636.5,826.167 636.5,816.5C 652.847,816.167 669.18,816.501 685.5,817.5C 686.279,822.113 686.779,826.78 687,831.5C 693.275,822.374 701.775,816.707 712.5,814.5 Z"/></g>
<g><path style="opacity:0.981" fill="#00294e" d="M 902.5,816.5 C 918.744,816.175 934.911,816.509 951,817.5C 951.333,853.5 951.667,889.5 952,925.5C 957.333,926.167 962.667,926.833 968,927.5C 968.5,936.827 968.666,946.161 968.5,955.5C 946.497,955.667 924.497,955.5 902.5,955C 901.35,946.245 901.184,937.412 902,928.5C 902.5,928 903,927.5 903.5,927C 908.489,926.501 913.489,926.334 918.5,926.5C 918.5,899.5 918.5,872.5 918.5,845.5C 912.907,845.807 907.407,845.473 902,844.5C 901.195,835.089 901.362,825.756 902.5,816.5 Z"/></g>
<g><path style="opacity:0.972" fill="#00294e" d="M 477.5,1005.5 C 530.405,1005.17 583.238,1005.5 636,1006.5C 636.825,1023.74 636.658,1040.91 635.5,1058C 625.833,1058.67 616.167,1058.67 606.5,1058C 605.833,1051 605.167,1044 604.5,1037C 594.256,1036.18 584.09,1036.35 574,1037.5C 573.5,1082.5 573.333,1127.5 573.5,1172.5C 579.509,1172.33 585.509,1172.5 591.5,1173C 592,1173.5 592.5,1174 593,1174.5C 593.667,1183.17 593.667,1191.83 593,1200.5C 580.907,1201.16 568.74,1201.5 556.5,1201.5C 544.26,1201.5 532.093,1201.16 520,1200.5C 519.333,1191.5 519.333,1182.5 520,1173.5C 526.076,1172.52 532.242,1172.19 538.5,1172.5C 538.5,1127.17 538.5,1081.83 538.5,1036.5C 528.167,1036.5 517.833,1036.5 507.5,1036.5C 507.797,1043.56 507.464,1050.56 506.5,1057.5C 496.5,1058.83 486.5,1058.83 476.5,1057.5C 475.348,1040.88 475.182,1024.21 476,1007.5C 476.717,1006.96 477.217,1006.29 477.5,1005.5 Z"/></g>
<g><path style="opacity:0.978" fill="#00294e" d="M 903.5,1005.5 C 919.411,1005.18 935.244,1005.51 951,1006.5C 951.333,1028.83 951.667,1051.17 952,1073.5C 961.338,1063.66 972.838,1058.99 986.5,1059.5C 1014.81,1060.64 1030.98,1075.31 1035,1103.5C 1035.5,1126.5 1035.67,1149.5 1035.5,1172.5C 1040.76,1172.2 1045.93,1172.53 1051,1173.5C 1051.5,1182.83 1051.67,1192.16 1051.5,1201.5C 1029.5,1201.5 1007.5,1201.5 985.5,1201.5C 985.334,1192.16 985.5,1182.83 986,1173.5C 991.407,1172.53 996.907,1172.19 1002.5,1172.5C 1002.93,1151.13 1002.43,1129.79 1001,1108.5C 996.262,1092.8 985.762,1086.63 969.5,1090C 960.93,1092.9 955.43,1098.74 953,1107.5C 951.556,1129.12 951.056,1150.79 951.5,1172.5C 957.093,1172.19 962.593,1172.53 968,1173.5C 968.667,1182.5 968.667,1191.5 968,1200.5C 957.074,1201.16 946.074,1201.49 935,1201.5C 923.926,1201.49 912.926,1201.16 902,1200.5C 901.333,1191.5 901.333,1182.5 902,1173.5C 907.407,1172.53 912.907,1172.19 918.5,1172.5C 918.667,1126.83 918.5,1081.17 918,1035.5C 912.667,1034.83 907.333,1034.17 902,1033.5C 900.905,1023.91 901.405,1014.58 903.5,1005.5 Z"/></g>
<g><path style="opacity:0.966" fill="#00294e" d="M 674.5,1059.5 C 697.088,1056.75 716.255,1063.42 732,1079.5C 739.692,1090.24 744.025,1102.24 745,1115.5C 745.648,1123.84 745.981,1132.18 746,1140.5C 745.5,1141.67 744.667,1142.5 743.5,1143C 714.502,1143.5 685.502,1143.67 656.5,1143.5C 657.542,1164.04 668.375,1174.71 689,1175.5C 697.399,1175.37 705.233,1173.2 712.5,1169C 716.024,1165.98 719.691,1163.14 723.5,1160.5C 730.436,1165.27 736.936,1170.6 743,1176.5C 743.667,1178.17 743.667,1179.83 743,1181.5C 727.452,1197.85 708.285,1205.85 685.5,1205.5C 652.798,1205.09 632.632,1189.09 625,1157.5C 620.755,1135.46 622.088,1113.8 629,1092.5C 638.436,1073.54 653.602,1062.54 674.5,1059.5 Z M 679.5,1087.5 C 700.741,1086.41 711.741,1096.41 712.5,1117.5C 693.833,1117.5 675.167,1117.5 656.5,1117.5C 655.978,1101.04 663.645,1091.04 679.5,1087.5 Z"/></g>
<g><path style="opacity:0.969" fill="#00294e" d="M 818.5,1059.5 C 835.613,1058.39 852.28,1060.56 868.5,1066C 872.456,1067.55 875.956,1069.72 879,1072.5C 879.821,1084.74 879.654,1096.91 878.5,1109C 868.833,1109.67 859.167,1109.67 849.5,1109C 848.693,1103.92 848.193,1098.75 848,1093.5C 845.958,1091.4 843.458,1090.23 840.5,1090C 831.674,1088.92 823.007,1089.59 814.5,1092C 805.761,1097.29 800.928,1105.12 800,1115.5C 798.378,1128.52 798.712,1141.52 801,1154.5C 805.536,1169.12 815.536,1176.12 831,1175.5C 836.286,1175.37 841.453,1174.54 846.5,1173C 847.126,1172.25 847.626,1171.42 848,1170.5C 847.913,1165.04 848.746,1159.87 850.5,1155C 859.5,1154.33 868.5,1154.33 877.5,1155C 878,1155.5 878.5,1156 879,1156.5C 879.667,1168.5 879.667,1180.5 879,1192.5C 873.417,1196.54 867.251,1199.37 860.5,1201C 790.165,1215.67 758.665,1187.17 766,1115.5C 769.007,1083 786.507,1064.33 818.5,1059.5 Z"/></g>
<g><path style="opacity:0.761" fill="#00294e" d="M 1082.5,1172.5 C 1095.77,1172.7 1101.27,1179.37 1099,1192.5C 1095.39,1200.5 1089.22,1203.33 1080.5,1201C 1071.58,1196.24 1069.08,1189.07 1073,1179.5C 1075.53,1176.12 1078.7,1173.78 1082.5,1172.5 Z M 1092.5,1195.5 C 1082.99,1200.58 1076.99,1197.75 1074.5,1187C 1075.61,1180.72 1079.28,1176.89 1085.5,1175.5C 1091.73,1176.9 1095.4,1180.73 1096.5,1187C 1096.2,1190.43 1094.87,1193.26 1092.5,1195.5 Z M 1083.5,1181.5 C 1090.1,1183.23 1090.1,1184.89 1083.5,1186.5C 1083.5,1184.83 1083.5,1183.17 1083.5,1181.5 Z"/></g>
<g><path style="opacity:0.728" fill="#00294e" d="M 1092.5,1195.5 C 1088.62,1196.13 1086.79,1194.46 1087,1190.5C 1085.99,1189.66 1084.82,1189.33 1083.5,1189.5C 1083.5,1191.5 1083.5,1193.5 1083.5,1195.5C 1082.17,1195.5 1080.83,1195.5 1079.5,1195.5C 1079.5,1190.17 1079.5,1184.83 1079.5,1179.5C 1083.47,1178.12 1087.31,1178.45 1091,1180.5C 1091.66,1183.05 1091.49,1185.55 1090.5,1188C 1091.11,1190.55 1091.77,1193.05 1092.5,1195.5 Z M 1083.5,1181.5 C 1083.5,1183.17 1083.5,1184.83 1083.5,1186.5C 1090.1,1184.89 1090.1,1183.23 1083.5,1181.5 Z"/></g>
</svg>
